<?xml version="1.0" encoding="UTF-8" standalone="no"?>
<!DOCTYPE svg PUBLIC "-//W3C//DTD SVG 1.1//EN" "http://www.w3.org/Graphics/SVG/1.1/DTD/svg11.dtd">
<svg width="100%" height="100%" viewBox="0 0 288 441" version="1.1" xmlns="http://www.w3.org/2000/svg" xmlns:xlink="http://www.w3.org/1999/xlink" xml:space="preserve" xmlns:serif="http://www.serif.com/" style="fill-rule:evenodd;clip-rule:evenodd;stroke-linejoin:round;stroke-miterlimit:2;">
    <g transform="matrix(1,0,0,1,-211.081,-193.417)">
        <g transform="matrix(7.5673,0,0,7.5673,-375.801,-2903.44)">
            <rect x="82.31" y="418.752" width="28.426" height="39.148" style="fill:rgb(223,249,251);fill-rule:nonzero;"/>
        </g>
        <g transform="matrix(7.5673,0,0,7.5673,-375.801,-2903.44)">
            <path d="M98.9,462.553C98.9,461.238 97.888,460.226 96.573,460.226C95.258,460.226 94.247,461.238 94.247,462.553C94.247,463.869 95.258,464.88 96.573,464.88C97.888,464.88 98.9,463.869 98.9,462.553ZM110.837,457.9L110.837,418.752L82.31,418.752L82.31,457.9L110.837,457.9ZM115.592,414.199L115.592,462.452C115.592,465.183 113.366,467.409 110.635,467.409L82.512,467.409C79.781,467.409 77.555,465.183 77.555,462.452L77.555,414.199C77.555,411.468 79.781,409.242 82.512,409.242L110.635,409.242C113.366,409.242 115.592,411.468 115.592,414.199Z" style="fill:rgb(87,96,111);fill-rule:nonzero;"/>
        </g>
        <g transform="matrix(7.5673,0,0,7.5673,-375.801,-2903.44)">
            <path d="M96.573,460.226C97.888,460.226 98.9,461.238 98.9,462.553C98.9,463.869 97.888,464.88 96.573,464.88C95.258,464.88 94.247,463.869 94.247,462.553C94.247,461.238 95.258,460.226 96.573,460.226Z" style="fill:rgb(76,84,98);fill-rule:nonzero;"/>
        </g>
        <g transform="matrix(7.5673,0,0,7.5673,-375.801,-2903.44)">
            <path d="M99.406,414.604L92.729,414.604C92.122,414.604 91.717,414.199 91.717,413.593C91.717,412.986 92.122,412.581 92.729,412.581L99.406,412.581C100.013,412.581 100.417,412.986 100.417,413.593C100.417,414.199 100.013,414.604 99.406,414.604Z" style="fill:rgb(76,84,98);fill-rule:nonzero;"/>
        </g>
        <g transform="matrix(3.86019,0,0,3.86019,-18.3397,-1770.34)">
            <path d="M109.219,568.467C110.736,568.467 111.748,570.186 110.938,571.502L96.775,590.013L82.31,571.502C81.501,570.186 82.411,568.467 83.928,568.467L88.177,568.467L88.177,543.582C88.177,542.469 89.087,541.457 90.301,541.457L102.744,541.457C103.857,541.457 104.869,542.368 104.869,543.582L104.869,568.467L109.219,568.467Z" style="fill:rgb(62,225,246);fill-rule:nonzero;"/>
        </g>
    </g>
</svg>
