<?xml version="1.0" encoding="UTF-8" standalone="no"?>
<!DOCTYPE svg PUBLIC "-//W3C//DTD SVG 1.1//EN" "http://www.w3.org/Graphics/SVG/1.1/DTD/svg11.dtd">
<svg width="100%" height="100%" viewBox="0 0 1878 1308" version="1.1" xmlns="http://www.w3.org/2000/svg" xmlns:xlink="http://www.w3.org/1999/xlink" xml:space="preserve" xmlns:serif="http://www.serif.com/" style="fill-rule:evenodd;clip-rule:evenodd;stroke-linejoin:round;stroke-miterlimit:2;">
    <g transform="matrix(1,0,0,1,-103.069,-388.147)">
        <g transform="matrix(4.16667,0,0,4.16667,0,0)">
            <g transform="matrix(1.16799,0,0,1.16799,-285.169,-116.877)">
                <g transform="matrix(1.79536,0,0,1.79536,-211.033,-356.633)">
                    <path d="M458.506,423.54C458.506,409.813 420.113,398.686 372.754,398.686C325.395,398.686 287.003,409.813 287.003,423.54C287.003,437.266 325.395,448.394 372.754,448.394C420.113,448.394 458.506,437.266 458.506,423.54Z" style="fill:rgb(94,55,53);fill-rule:nonzero;"/>
                </g>
                <g transform="matrix(1.79536,0,0,1.79536,-211.033,-356.633)">
                    <path d="M480.178,409.959C480.178,392.764 432.082,378.824 372.754,378.824C313.426,378.824 265.331,392.764 265.331,409.959C265.331,427.154 313.426,441.094 372.754,441.094C432.082,441.094 480.178,427.154 480.178,409.959Z" style="fill:rgb(115,68,62);fill-rule:nonzero;"/>
                </g>
                <g transform="matrix(1.79536,0,0,1.79536,-211.033,-356.633)">
                    <path d="M476.978,409.644C476.978,394.065 430.445,381.437 373.045,381.437C315.644,381.437 269.112,394.065 269.112,409.644C269.112,425.222 315.644,437.85 373.045,437.85C430.445,437.85 476.978,425.222 476.978,409.644Z" style="fill:rgb(71,42,38);fill-rule:nonzero;"/>
                </g>
                <g transform="matrix(1.79536,0,0,1.79536,-211.033,-356.633)">
                    <path d="M417.019,409.959C417.019,402.874 397.201,397.13 372.754,397.13C348.308,397.13 328.489,402.874 328.489,409.959C328.489,417.045 348.308,422.788 372.754,422.788C397.201,422.788 417.019,417.045 417.019,409.959Z" style="fill:rgb(53,32,28);fill-rule:nonzero;"/>
                </g>
                <g transform="matrix(1.79536,0,0,1.79536,-211.033,-356.633)">
                    <path d="M437.457,358.139C438.465,344.333 439.55,330.701 440.557,316.896C444.816,316.997 449.355,317.086 453.615,317.188C451.42,330.366 449.226,343.546 447.031,356.725C444.107,356.838 440.381,358.026 437.457,358.139Z" style="fill:rgb(249,175,25);fill-rule:nonzero;"/>
                </g>
                <g transform="matrix(1.79536,0,0,1.79536,-211.033,-356.633)">
                    <path d="M423.218,354.613C422.873,338.81 423.208,314.605 422.863,298.802C427.115,299.166 431.501,299.992 435.752,300.356C435.715,315.877 434.562,340.311 434.524,355.832C430.573,355.862 427.169,354.583 423.218,354.613Z" style="fill:rgb(249,175,25);fill-rule:nonzero;"/>
                </g>
                <g transform="matrix(1.79536,0,0,1.79536,-211.033,-356.633)">
                    <path d="M409.771,351.483C412.544,350.982 415.262,350.3 418.034,349.798C418.661,336.573 419.288,323.348 419.915,310.122C416.34,310.408 412.519,310.31 408.943,310.596C409.419,323.703 409.296,338.376 409.771,351.483Z" style="fill:rgb(249,175,25);fill-rule:nonzero;"/>
                </g>
                <g transform="matrix(1.79536,0,0,1.79536,-211.033,-356.633)">
                    <path d="M402.267,356.225C399.54,344.848 396.605,333.583 393.879,322.206C396.764,321.676 400.047,321.464 402.932,320.935C404.771,332.344 406.61,343.753 408.449,355.162C406.747,355.439 403.969,355.947 402.267,356.225Z" style="fill:rgb(249,175,25);fill-rule:nonzero;"/>
                </g>
                <g transform="matrix(1.79536,0,0,1.79536,-211.033,-356.633)">
                    <path d="M415.582,359.745C415.572,345.642 415.923,331.117 415.913,317.014C420.129,317.08 425.091,318.871 429.308,318.937C428.035,332.797 426.763,346.657 425.49,360.518C422.859,360.16 418.213,360.102 415.582,359.745Z" style="fill:rgb(250,196,47);fill-rule:nonzero;"/>
                </g>
                <g transform="matrix(1.79536,0,0,1.79536,-211.033,-356.633)">
                    <path d="M404.319,364.44C402.234,351.265 400.154,338.309 398.069,325.133C402.003,325.02 406.699,324.271 410.633,324.159C411.683,336.457 413.865,350.344 414.915,362.642C411.769,363.643 407.466,363.44 404.319,364.44Z" style="fill:rgb(250,196,47);fill-rule:nonzero;"/>
                </g>
                <g transform="matrix(1.79536,0,0,1.79536,-211.033,-356.633)">
                    <path d="M431.149,362.979C431.465,351.302 431.395,339.392 431.71,327.714C434.641,327.753 438.519,327.708 441.45,327.747C441.076,338.881 440.702,350.016 440.329,361.15C437.437,361.294 434.041,362.835 431.149,362.979Z" style="fill:rgb(250,196,47);fill-rule:nonzero;"/>
                </g>
                <g transform="matrix(1.79536,0,0,1.79536,-211.033,-356.633)">
                    <path d="M455.3,342.325L450.819,381.415L446.66,417.775C446.66,417.775 421.3,406.215 400.3,419.515L398.55,394.985L394.8,342.325C394.8,342.325 429.55,354.825 455.3,342.325Z" style="fill:rgb(211,32,39);fill-rule:nonzero;"/>
                </g>
                <g transform="matrix(1.79536,0,0,1.79536,-211.033,-356.633)">
                    <path d="M400.3,419.515L400.251,418.825C403.358,417.029 406.318,414.989 409.088,412.687C409.077,412.47 409.066,412.249 409.053,412.027C408.79,407.495 408.076,402.083 407.644,397.221C409.538,397.468 411.452,397.591 413.366,397.591C416.572,397.591 419.776,397.247 422.88,396.564C433.359,394.265 442.77,388.615 450.819,381.415L446.66,417.775C446.66,417.775 436.44,413.116 423.603,413.116C416.218,413.116 407.968,414.658 400.3,419.515ZM401.808,397.438C401.679,396.952 401.546,396.448 401.409,395.929C402.024,396.106 402.644,396.27 403.268,396.418C402.783,396.765 402.298,397.104 401.808,397.438Z" style="fill:rgb(181,31,36);fill-rule:nonzero;"/>
                </g>
                <g transform="matrix(1.79536,0,0,1.79536,-211.033,-356.633)">
                    <path d="M397.326,379.63C398.294,384.103 401.764,397.415 402.993,401.824C381.993,418.783 323.993,416.49 306.506,407.51C306.51,402.308 307.327,394.087 308.919,389.134C335.894,389.674 370.326,388.49 397.326,379.63Z" style="fill:rgb(103,18,12);fill-rule:nonzero;"/>
                </g>
                <g transform="matrix(1.79536,0,0,1.79536,-211.033,-356.633)">
                    <path d="M409.088,412.687C398.461,421.517 385.011,426.521 371.334,428.488C357.658,430.454 343.709,429.519 330.046,427.466C318.384,425.714 308.331,422.8 298.67,416.035C298.72,411.88 299.523,407.865 299.572,403.709C333.894,416.039 376.098,418.641 407.364,393.301C407.651,399.203 408.801,406.784 409.088,412.687Z" style="fill:rgb(249,175,25);fill-rule:nonzero;"/>
                </g>
                <g transform="matrix(1.79536,0,0,1.79536,-211.033,-356.633)">
                    <path d="M355.484,429.57L355.479,429.57L355.484,429.57ZM355.487,429.57C360.642,429.57 365.788,429.261 370.897,428.55C365.787,429.261 360.643,429.57 355.487,429.57ZM371.177,428.511C371.23,428.503 371.281,428.496 371.334,428.488C380.098,427.228 388.77,424.72 396.665,420.757C388.77,424.72 380.098,427.228 371.334,428.488C371.281,428.496 371.23,428.503 371.177,428.511Z" style="fill:rgb(70,35,30);fill-rule:nonzero;"/>
                </g>
                <g transform="matrix(1.79536,0,0,1.79536,-211.033,-356.633)">
                    <path d="M330.524,427.537C330.481,427.531 330.438,427.524 330.395,427.518C330.438,427.524 330.481,427.531 330.524,427.537ZM330.145,427.481C330.112,427.476 330.078,427.471 330.046,427.466C318.384,425.714 308.331,422.8 298.67,416.035C308.331,422.8 318.384,425.714 330.046,427.466C330.078,427.471 330.112,427.476 330.145,427.481ZM298.896,412.117C298.972,411.289 299.06,410.464 299.145,409.638C299.06,410.464 298.973,411.289 298.896,412.117Z" style="fill:rgb(70,35,30);fill-rule:nonzero;"/>
                </g>
                <g transform="matrix(1.79536,0,0,1.79536,-211.033,-356.633)">
                    <path d="M400.251,418.825C403.358,417.029 406.318,414.989 409.088,412.687C406.318,414.989 403.358,417.029 400.251,418.825ZM409.088,412.687C409.077,412.469 409.065,412.249 409.053,412.027C409.066,412.249 409.077,412.47 409.088,412.687Z" style="fill:rgb(159,28,32);fill-rule:nonzero;"/>
                </g>
                <g transform="matrix(1.79536,0,0,1.79536,-211.033,-356.633)">
                    <path d="M355.487,429.57L355.479,429.57C347.141,429.57 338.781,428.761 330.524,427.537C330.481,427.531 330.438,427.524 330.395,427.518C330.311,427.505 330.229,427.493 330.145,427.481C330.112,427.476 330.078,427.471 330.046,427.466C318.384,425.714 308.331,422.8 298.67,416.035C298.686,414.718 298.777,413.415 298.896,412.117C298.973,411.289 299.06,410.464 299.146,409.638C308.661,416.169 318.574,419.024 330.046,420.748C338.46,422.013 346.981,422.853 355.481,422.853C360.784,422.853 366.08,422.526 371.334,421.771C384.795,419.835 398.03,414.948 408.577,406.376C408.774,408.336 408.949,410.25 409.053,412.027C409.065,412.249 409.077,412.469 409.088,412.687C406.318,414.989 403.358,417.029 400.251,418.825C399.075,419.504 397.879,420.148 396.665,420.757C388.77,424.72 380.098,427.228 371.334,428.488C371.281,428.496 371.23,428.503 371.177,428.511C371.085,428.524 370.99,428.537 370.897,428.55C365.788,429.261 360.642,429.57 355.487,429.57Z" style="fill:rgb(213,143,41);fill-rule:nonzero;"/>
                </g>
                <g transform="matrix(1.79536,0,0,1.79536,-211.033,-356.633)">
                    <path d="M395.211,384.373C379.172,400.604 358.753,411.443 336.478,416.397C326.669,408.961 317.825,400.252 310.24,390.558C338.596,392.165 367.044,388.019 395.211,384.373Z" style="fill:rgb(250,196,47);fill-rule:nonzero;"/>
                </g>
                <g transform="matrix(1.79536,0,0,1.79536,-211.033,-356.633)">
                    <path d="M408.463,384.374C408.163,387.034 406.303,389.664 403.663,390.084C400.603,390.564 397.652,387.444 395.532,385.184C395.883,387.544 396.112,390.274 394.442,391.974C392.902,393.544 390.243,393.504 388.303,392.464C386.353,391.434 383.732,388.224 382.383,386.474C383.303,390.514 380.312,395.004 376.232,395.724C372.152,396.434 367.513,392.714 367.003,388.604C367.612,392.214 364.833,396.044 361.213,396.594C356.902,397.254 352.253,393.134 349.463,389.764C348.563,391.774 347.642,393.815 346.133,395.424C344.633,397.024 342.423,398.134 340.263,397.754C336.942,397.174 334.873,393.684 332.203,391.644C330.673,393.844 328.862,395.934 326.482,397.174C324.112,398.414 321.093,398.664 318.813,397.254C316.543,395.844 313.482,393.314 314.923,391.064C311.982,393.414 308.353,394.894 304.603,395.264C303.282,395.394 301.643,395.194 301.133,393.974C300.893,393.374 301.003,392.694 301.133,392.064C302.902,383.704 307.543,375.964 314.083,370.474C314.232,370.344 314.383,370.214 314.543,370.084C320.873,369.764 330.993,368.134 337.322,367.814C355.883,366.884 376.562,366.574 394.312,361.094L394.442,361.054C399.623,365.254 403.843,370.644 406.692,376.674C407.822,379.094 408.763,381.724 408.463,384.374Z" style="fill:rgb(81,129,59);fill-rule:nonzero;"/>
                </g>
                <g transform="matrix(1.79536,0,0,1.79536,-211.033,-356.633)">
                    <path d="M399.203,377.834C397.623,380.324 392.213,381.764 390.612,379.284C391.173,381.274 389.183,383.334 387.112,383.374C385.053,383.404 382.343,382.074 381.303,380.294C380.772,383.234 378.353,385.734 375.433,386.374C372.513,387.004 368.643,385.784 366.942,383.334C367.123,385.214 365.623,387.104 363.753,387.353C361.873,387.603 359.343,385.704 359.032,383.834C358.433,386.004 356.402,387.704 354.163,387.904C351.913,388.104 349.223,386.734 348.263,384.704C347.083,386.914 344.713,388.444 342.213,388.614C339.713,388.774 337.553,387.974 336.102,385.934C333.072,388.924 326.093,388.744 323.692,385.224C323.253,386.574 321.753,387.494 320.352,387.274C318.942,387.064 317.203,385.654 317.183,384.234C316.343,384.874 315.453,385.524 314.413,385.714C312.383,386.084 310.343,384.344 310.032,382.294C309.732,380.254 310.923,378.174 312.652,377.054C312.902,374.814 313.383,372.614 314.083,370.474C314.232,370.344 314.383,370.214 314.543,370.084C320.873,369.764 330.993,368.134 337.322,367.814C355.883,366.884 376.562,366.574 394.312,361.094C396.442,363.524 398.183,366.254 399.312,369.304C400.333,372.065 400.772,375.344 399.203,377.834Z" style="fill:rgb(70,111,52);fill-rule:nonzero;"/>
                </g>
                <g transform="matrix(1.79536,0,0,1.79536,-211.033,-356.633)">
                    <path d="M405.493,368.323C373.643,380.9 336.604,383.456 302.833,375.406C300.726,360.321 308.728,343.456 323.391,334.999C338.054,326.543 357.967,325.542 373.887,332.1C389.808,338.656 402.828,353.305 405.493,368.323Z" style="fill:rgb(249,166,26);fill-rule:nonzero;"/>
                </g>
                <g transform="matrix(1.79536,0,0,1.79536,-211.033,-356.633)">
                    <path d="M402.435,369.494C403.46,369.114 404.478,368.724 405.493,368.323C404.478,368.724 403.46,369.114 402.435,369.494Z" style="fill:rgb(181,31,36);fill-rule:nonzero;"/>
                </g>
                <g transform="matrix(1.79536,0,0,1.79536,-211.033,-356.633)">
                    <path d="M399.7,370.481C400.615,370.16 401.528,369.831 402.435,369.494C401.528,369.831 400.615,370.16 399.7,370.481Z" style="fill:rgb(79,105,48);fill-rule:nonzero;"/>
                </g>
                <g transform="matrix(1.79536,0,0,1.79536,-211.033,-356.633)">
                    <path d="M366.552,378.405C377.905,376.86 389.057,374.211 399.7,370.481C389.055,374.212 377.907,376.86 366.552,378.405Z" style="fill:rgb(71,91,41);fill-rule:nonzero;"/>
                </g>
                <g transform="matrix(1.79536,0,0,1.79536,-211.033,-356.633)">
                    <path d="M302.826,375.359C302.825,375.346 302.823,375.333 302.821,375.32C302.823,375.333 302.825,375.346 302.826,375.359ZM302.82,375.316C302.807,375.214 302.793,375.112 302.78,375.01C302.793,375.111 302.807,375.215 302.82,375.316ZM302.78,375.007C302.778,374.995 302.777,374.983 302.775,374.971C302.777,374.983 302.778,374.995 302.78,375.007ZM302.771,374.939C302.77,374.934 302.77,374.929 302.769,374.924C302.77,374.929 302.77,374.935 302.771,374.939Z" style="fill:rgb(219,207,206);fill-rule:nonzero;"/>
                </g>
                <g transform="matrix(1.79536,0,0,1.79536,-211.033,-356.633)">
                    <path d="M405.493,368.323C405.491,368.309 405.488,368.294 405.486,368.281C405.488,368.295 405.491,368.309 405.493,368.323ZM405.479,368.243C405.478,368.241 405.478,368.241 405.478,368.239C405.478,368.241 405.478,368.241 405.479,368.243Z" style="fill:rgb(181,31,36);fill-rule:nonzero;"/>
                </g>
                <g transform="matrix(1.79536,0,0,1.79536,-211.033,-356.633)">
                    <path d="M342.658,380.021C329.221,380.021 315.785,378.493 302.833,375.406C302.831,375.391 302.829,375.375 302.826,375.359C302.825,375.346 302.823,375.333 302.821,375.32C302.821,375.319 302.821,375.318 302.82,375.316C302.807,375.215 302.793,375.111 302.78,375.01L302.78,375.007C302.778,374.995 302.777,374.983 302.775,374.971C302.774,374.96 302.772,374.95 302.771,374.939C302.77,374.935 302.77,374.929 302.769,374.924C302.469,372.524 302.429,370.082 302.622,367.639C303.418,368.304 304.319,368.892 305.344,369.385C311.623,372.4 318.671,373.499 325.563,373.946C328.081,374.109 330.603,374.191 333.126,374.191C341.889,374.191 350.653,373.209 359.196,371.264C364.4,370.079 369.692,368.449 373.751,364.983C379.734,359.874 382.074,351.228 380.51,343.517C379.739,339.721 378.116,336.167 375.906,332.987C390.868,339.899 402.894,353.89 405.478,368.239C405.478,368.241 405.478,368.241 405.479,368.243C405.481,368.255 405.483,368.268 405.486,368.281C405.488,368.294 405.491,368.309 405.493,368.323C404.478,368.724 403.46,369.114 402.435,369.494C401.528,369.831 400.615,370.16 399.7,370.481C389.057,374.211 377.905,376.86 366.552,378.405C358.653,379.48 350.655,380.021 342.658,380.021Z" style="fill:rgb(212,137,41);fill-rule:nonzero;"/>
                </g>
                <g transform="matrix(1.79536,0,0,1.79536,-211.033,-356.633)">
                    <path d="M336.048,337.298C334.499,335.664 331.712,335.656 329.916,336.901C329.131,337.445 328.598,338.09 328.304,338.997C327.963,340.053 328.277,341.206 328.932,342.054C330.163,343.647 332.72,343.962 334.164,342.408L334.208,342.367L334.289,342.325C334.468,342.265 334.666,342.199 334.837,342.144C336.866,341.401 337.593,338.927 336.048,337.298Z" style="fill:rgb(249,196,91);fill-rule:nonzero;"/>
                </g>
                <g transform="matrix(1.79536,0,0,1.79536,-211.033,-356.633)">
                    <path d="M334.837,342.144L334.758,342.181C335.514,341.928 335.268,342.003 334.837,342.144Z" style="fill:rgb(249,196,91);fill-rule:nonzero;"/>
                </g>
                <g transform="matrix(1.79536,0,0,1.79536,-211.033,-356.633)">
                    <path d="M345.124,342.411C345.077,342.167 345.021,341.946 344.931,341.714C344.811,341.286 344.594,340.914 344.28,340.599C344.136,340.422 344.16,340.468 344.354,340.735C343.451,339.347 341.534,339.347 340.631,340.735C340.825,340.468 340.85,340.422 340.705,340.599C340.392,340.914 340.175,341.286 340.055,341.714C339.965,341.946 339.908,342.167 339.861,342.411C339.68,343.355 339.813,344.378 340.563,345.066C341.097,345.556 341.753,345.865 342.493,345.865C343.192,345.865 343.928,345.561 344.422,345.066C345.151,344.337 345.312,343.389 345.124,342.411Z" style="fill:rgb(249,196,91);fill-rule:nonzero;"/>
                </g>
                <g transform="matrix(1.79536,0,0,1.79536,-211.033,-356.633)">
                    <path d="M361.343,341.588C361.256,341.325 361.139,341.019 360.976,340.792L360.914,340.718C360.771,340.413 360.601,340.125 360.387,339.873L360.257,339.719L360.143,339.62C359.523,339.063 358.627,338.829 357.817,339.083C357.104,339.252 356.408,339.719 356.098,340.354C355.575,341.421 355.391,342.891 356.139,343.921C356.882,344.944 358.082,345.633 359.384,345.241C360.927,344.776 361.858,343.153 361.343,341.588Z" style="fill:rgb(249,196,91);fill-rule:nonzero;"/>
                </g>
                <g transform="matrix(1.79536,0,0,1.79536,-211.033,-356.633)">
                    <path d="M370.547,337.612C369.737,336.048 367.451,335.908 365.915,336.199C364.382,336.489 363.702,338.851 364.95,339.855C365.367,340.192 365.734,340.449 366.237,340.66C366.469,340.758 366.7,340.859 366.934,340.953C367.837,341.315 368.837,341.448 369.694,340.861C370.795,340.109 371.173,338.822 370.547,337.612Z" style="fill:rgb(249,196,91);fill-rule:nonzero;"/>
                </g>
                <g transform="matrix(1.79536,0,0,1.79536,-211.033,-356.633)">
                    <path d="M342.211,411.773C341.049,411.773 339.885,411.517 338.706,410.852C338.025,410.47 337.898,409.229 338.706,408.883C341.781,407.568 344.916,406.431 348.044,405.22C351.369,403.933 354.996,401.631 358.606,401.631L358.643,401.631C360.347,401.638 361.164,403.731 360.013,404.938C357.304,407.776 352.297,408.868 348.663,410.144C346.461,410.917 344.338,411.773 342.211,411.773Z" style="fill:rgb(250,209,90);fill-rule:nonzero;"/>
                </g>
                <g transform="matrix(1.79536,0,0,1.79536,-211.033,-356.633)">
                    <path d="M364.969,402.702C364.412,402.702 363.854,402.532 363.319,402.113C362.827,401.728 362.782,401.01 362.882,400.456C363.02,399.686 363.823,399.008 364.46,398.618C364.696,398.473 364.926,398.315 365.161,398.171L365.185,398.158L365.235,398.112C365.328,398.031 365.421,397.95 365.512,397.867C365.963,397.458 366.508,397.251 367.052,397.251C367.593,397.251 368.134,397.455 368.583,397.867C369.392,398.609 369.462,400.211 368.583,400.938C367.565,401.781 366.267,402.702 364.969,402.702Z" style="fill:rgb(250,209,90);fill-rule:nonzero;"/>
                </g>
            </g>
        </g>
    </g>
</svg>
