<?xml version="1.0" encoding="UTF-8" standalone="no"?>
<!DOCTYPE svg PUBLIC "-//W3C//DTD SVG 1.1//EN" "http://www.w3.org/Graphics/SVG/1.1/DTD/svg11.dtd">
<svg width="100%" height="100%" viewBox="0 0 2964 1298" version="1.1" xmlns="http://www.w3.org/2000/svg" xmlns:xlink="http://www.w3.org/1999/xlink" xml:space="preserve" xmlns:serif="http://www.serif.com/" style="fill-rule:evenodd;clip-rule:evenodd;stroke-linejoin:round;stroke-miterlimit:2;">
    <g transform="matrix(1,0,0,1,-80.5021,-184.733)">
        <g transform="matrix(5.46219,0,0,5.46219,-867.657,-671.479)">
            <rect x="653.626" y="366.291" width="55.729" height="0.421" style="fill:rgb(229,229,228);fill-rule:nonzero;"/>
            <rect x="495.044" y="370.857" width="14.626" height="0.42" style="fill:rgb(229,229,228);fill-rule:nonzero;"/>
            <rect x="173.586" y="360.598" width="157.612" height="0.42" style="fill:rgb(229,229,228);fill-rule:nonzero;"/>
            <g transform="matrix(1,0,0,1,52.32,-5.76)">
                <path d="M656.95,393.868C656.95,397.255 539.38,400 394.351,400C249.321,400 131.751,397.255 131.751,393.868C131.751,390.481 249.321,387.736 394.351,387.736C539.38,387.736 656.95,390.481 656.95,393.868Z" style="fill:rgb(240,240,240);fill-rule:nonzero;"/>
            </g>
            <path d="M695.142,344.43L200.533,356.024L200.533,271.429L699.901,271.429L695.142,344.43Z" style="fill:rgb(12,43,52);fill-rule:nonzero;"/>
            <path d="M229.032,355.356C226.837,346.399 226.787,337.039 228.901,328.04C235.235,301.081 259.275,282.892 285.819,282.892L285.868,282.892C290.26,282.902 294.718,283.409 299.177,284.457C329.93,291.682 349.266,321.938 343.221,352.679L333.268,352.913C337.112,336.953 332.806,319.428 320.348,306.97C310.828,297.45 298.35,292.69 285.872,292.69C273.395,292.69 260.917,297.45 251.397,306.97C238.361,320.006 234.25,338.588 239.064,355.121L229.032,355.356ZM577.703,347.183C577.489,345.107 577.386,343.021 577.395,340.933C577.536,308.722 603.677,282.703 635.848,282.668L636.031,282.668C668.35,282.809 694.436,309.124 694.295,341.443C694.295,342.455 694.222,343.454 694.206,344.452L684.522,344.679C685.418,331.144 680.694,317.306 670.349,306.961C660.828,297.441 648.35,292.681 635.873,292.681C623.395,292.681 610.917,297.441 601.397,306.961C590.47,317.887 585.814,332.708 587.428,346.955L577.703,347.183Z" style="fill:rgb(0,4,14);fill-rule:nonzero;"/>
            <path d="M181.508,293.133L181.508,336.037C181.505,345.228 187.495,353.347 196.277,356.057L199.773,357.12C201.925,357.787 204.173,358.099 206.426,358.044L229.526,357.505C226.782,347.904 226.54,337.761 228.824,328.04C236.216,296.578 267.715,277.064 299.177,284.457C330.64,291.849 350.153,323.347 342.761,354.81L577.81,349.22C577.43,346.474 577.245,343.705 577.257,340.933C577.398,308.613 603.712,282.528 636.031,282.668C668.35,282.809 694.436,309.124 694.295,341.443C694.295,342.582 694.203,343.707 694.203,344.831C694.511,344.708 694.834,344.584 695.142,344.43L703.181,340.842C711.109,337.261 716.206,329.368 716.209,320.668L716.209,233.289C716.21,225.07 711.656,217.527 704.382,213.7L643.968,181.93C643.277,181.562 642.745,180.951 642.475,180.216C641.868,178.563 642.716,176.731 644.369,176.125L651.76,173.476C652.381,173.263 652.827,172.717 652.911,172.066C653.033,171.121 652.366,170.256 651.422,170.134C622.716,166.13 511.067,151.531 452.378,158.707C384.68,166.992 319.8,225.743 319.8,225.743C269.981,223.88 223.473,241.22 203.453,249.921C196.99,252.742 192.018,258.162 189.763,264.844L182.91,285.141C182.013,287.711 181.54,290.411 181.508,293.133Z" style="fill:rgb(48,115,186);fill-rule:nonzero;"/>
            <path d="M577.872,349.22C577.531,346.642 577.361,344.044 577.363,341.443C577.363,340.118 577.41,338.809 577.487,337.501L534.983,320.114C532.495,319.101 529.81,318.664 527.129,318.836L379.29,328.538C376.873,328.69 374.514,329.34 372.36,330.447L344.27,344.892C344.07,348.232 343.591,351.55 342.838,354.81L577.872,349.22Z" style="fill:rgb(12,43,52);fill-rule:nonzero;"/>
            <path d="M716.225,320.668L716.225,318.435L692.185,325.796C693.587,330.894 694.297,336.156 694.295,341.443C694.295,342.582 694.203,343.707 694.203,344.831C694.511,344.708 694.834,344.584 695.142,344.43L703.196,340.842C711.125,337.261 716.222,329.368 716.225,320.668Z" style="fill:rgb(12,43,52);fill-rule:nonzero;"/>
            <path d="M188.331,351.437C190.625,353.559 193.367,355.138 196.354,356.057L199.85,357.12C202.003,357.787 204.249,358.099 206.503,358.044L229.602,357.505C228.766,354.585 228.163,351.604 227.801,348.588L188.331,351.437Z" style="fill:rgb(12,43,52);fill-rule:nonzero;"/>
            <path d="M635.929,277.425C633.273,277.425 630.619,277.589 627.983,277.918C592.908,282.299 568.025,314.283 572.405,349.358L577.949,349.22C577.568,346.474 577.383,343.705 577.395,340.933C577.536,308.613 603.85,282.528 636.17,282.668C668.489,282.809 694.575,309.124 694.434,341.443C694.434,342.582 694.341,343.707 694.341,344.831C694.649,344.708 694.973,344.584 695.281,344.43L699.901,342.336L699.901,341.443C699.858,306.099 671.212,277.459 635.868,277.425L635.929,277.425Z" style="fill:rgb(12,43,52);fill-rule:nonzero;"/>
            <path d="M285.874,277.425C280.407,277.424 274.962,278.123 269.672,279.505C235.465,288.444 214.981,323.421 223.92,357.628L229.603,357.505C226.859,347.904 226.617,337.761 228.901,328.04C236.293,296.578 267.792,277.064 299.254,284.457C330.717,291.849 350.23,323.347 342.838,354.81L348.505,354.671C349.427,350.312 349.892,345.868 349.891,341.413C349.882,306.065 321.221,277.417 285.874,277.425Z" style="fill:rgb(12,43,52);fill-rule:nonzero;"/>
            <path d="M341.582,228.203C340.898,228.782 340.411,229.615 340.207,230.557C339.722,232.79 340.915,235.04 342.872,235.583L367.305,242.431C369.47,243.044 371.714,243.214 373.935,242.932L555.097,220.487C559.506,219.927 563.616,217.646 566.729,214.032L590.495,186.345C591.286,185.43 591.788,184.241 591.919,182.967C592.243,179.816 590.267,176.974 587.505,176.618C544.124,170.866 489.274,165.636 454.639,169.868C409.245,175.407 363.544,209.529 341.582,228.203Z" style="fill:rgb(48,115,186);fill-rule:nonzero;"/>
            <path d="M381.677,242.457L381.589,241.983L405.07,239.074C407.687,239.511 410.532,239.946 413.291,240.29L381.677,242.457ZM437.09,238.658C437.868,238.481 438.649,238.298 439.429,238.113L439.525,238.491L437.09,238.658ZM458.739,237.174C459.489,237.051 459.971,236.98 460.077,236.98L460.08,236.98C460.08,236.98 464.434,234.631 468.205,231.252L485.497,229.11L484.045,235.44L458.739,237.174ZM504.105,234.065L505.15,226.675L555.097,220.487C559.506,219.927 563.616,217.646 566.729,214.032L590.495,186.345C591.286,185.43 591.788,184.241 591.919,182.967C592.243,179.816 590.267,176.974 587.505,176.618C555.287,172.346 516.741,168.362 484.85,168.328L485.259,168.328C517.229,168.328 555.965,172.328 588.321,176.618C591.084,176.974 593.06,179.816 592.735,182.967C592.604,184.241 592.103,185.43 591.311,186.345L567.9,215.552C563.081,222.13 556.267,230.232 551.859,230.791L504.105,234.065Z" style="fill:rgb(202,221,242);fill-rule:nonzero;"/>
            <path d="M381.589,241.983L374.536,203.875C397.488,188.528 426.533,173.397 455.455,169.868C464.148,168.806 474.111,168.34 484.85,168.328C516.741,168.362 555.287,172.346 587.505,176.618C590.267,176.974 592.243,179.816 591.919,182.967C591.788,184.241 591.286,185.43 590.495,186.345L566.729,214.032C563.616,217.646 559.506,219.927 555.097,220.487L505.15,226.675L513.271,169.228C508.572,168.959 503.94,168.751 499.373,168.602L485.497,229.11L468.205,231.252C471.83,228.003 474.915,223.801 473.071,219.816C472.485,218.549 471.321,217.724 469.734,217.253C469.889,215.269 470.368,211.947 471.737,207.028C473.451,206.266 475.145,204.69 475.923,202.547C476.426,201.162 476.18,199.699 475.382,198.687C477.715,196.45 480.491,193.461 480.28,192.083C480.058,190.629 479.462,190.352 479.04,190.352C478.779,190.352 478.584,190.457 478.584,190.457C478.584,190.457 481.466,184.781 478.627,183.807C477.668,183.478 477.01,183.369 476.56,183.369C475.718,183.369 475.601,183.75 475.592,183.785C475.621,183.662 476.685,179.137 474.464,177.763C474.12,177.548 473.815,177.461 473.549,177.461C472.489,177.461 472.024,178.823 472.024,178.823C472.024,178.823 468.802,173.823 464.927,173.823C464.898,173.823 464.87,173.823 464.841,173.824C462.906,173.972 461.954,175.219 462.228,176.709L462.271,176.901C462.271,176.901 457.695,174.908 453.891,174.908C452.697,174.908 451.579,175.104 450.702,175.62C447.033,177.781 451.819,180.15 451.819,180.15C451.819,180.15 450.922,180.056 449.68,180.056C447.285,180.056 443.609,180.404 442.616,182.443C441.418,184.902 444.842,186.558 444.842,186.558C444.842,186.558 443.628,186.971 442.59,187.909C440.612,189.696 441.821,193.085 444.484,193.181L444.546,193.183C444.713,193.188 444.935,193.205 445.159,193.205C445.483,193.205 445.811,193.168 445.987,193.002C445.987,193.002 444.665,195.789 447.513,196.684C447.845,196.788 448.157,196.836 448.448,196.838C448.038,200.069 448.16,203.325 448.668,206.004C449.711,211.507 454.216,215.239 459.098,215.586C459.008,216.231 458.906,216.876 458.798,217.499C457.016,217.836 455.157,218.273 453.275,218.782C446.725,220.552 439.685,223.3 437.09,224.345C436.463,224.304 435.847,224.265 435.25,224.227C434.288,224.155 433.461,224.089 433.183,224.089C433.145,224.089 433.117,224.09 433.1,224.093C430.818,223.955 429.053,223.862 428.408,223.862C428.263,223.862 428.174,223.867 428.149,223.877L422.277,210.436C422.801,209.611 423.292,208.533 423.32,207.36C423.383,204.798 424.114,202.768 424.029,200.86C424.004,200.298 423.848,200.077 423.624,200.077C423.087,200.077 422.161,201.344 421.716,202.225C421.191,203.262 420.6,204.41 419.921,204.41C419.783,204.41 419.641,204.362 419.495,204.257C418.634,203.631 414.886,195.276 413.593,194.544C413.345,194.404 413.151,194.347 413,194.347C412.364,194.347 412.483,195.353 412.483,195.353C412.483,195.353 411.594,193.505 410.727,193.505C410.692,193.505 410.656,193.508 410.62,193.515C410.387,193.558 409.914,194.036 410.211,195.019C410.858,197.161 412.418,201.518 412.513,201.783C412.367,201.392 409.997,196.03 409.532,195.264C409.113,194.574 408.605,194.278 408.142,194.278C407.925,194.278 407.718,194.343 407.535,194.463C406.715,194.998 409.491,201.91 409.404,202.283C409.404,202.283 407.939,198.25 406.691,198.059C406.647,198.052 406.606,198.049 406.567,198.049C405.499,198.049 406.266,200.532 407.351,202.607C408.382,204.58 409.888,208.719 411.13,210.622C412.192,212.247 413.265,213.338 414.687,213.721C415.863,217.598 417.883,223.976 419.934,229.148L395.479,227.899L394.351,237.076C394.351,237.076 399.129,238.082 405.07,239.074L381.589,241.983Z" style="fill:rgb(202,221,242);fill-rule:nonzero;"/>
            <path d="M461.501,245.596C461.243,245.596 460.987,245.551 460.744,245.464C459.584,245.046 458.982,243.766 459.4,242.606C459.914,241.169 461.248,240.188 462.773,240.127L484.332,239.218C484.366,239.217 484.399,239.216 484.433,239.216C484.691,239.216 484.947,239.26 485.19,239.347C486.359,239.765 486.968,241.052 486.55,242.221C486.027,243.658 484.689,244.637 483.162,244.701L461.602,245.594C461.569,245.595 461.535,245.596 461.501,245.596Z" style="fill:rgb(13,96,174);fill-rule:nonzero;"/>
            <path d="M621.081,183.693C619.174,185.389 619.003,188.309 620.699,190.216L625.812,195.775C626.398,196.398 627.144,196.851 627.968,197.084L690.599,214.455C691.689,214.749 692.812,214.899 693.941,214.902L706.384,214.902C705.737,214.471 705.075,214.07 704.382,213.7L643.968,181.9L643.965,181.898C642.439,181.145 641.814,179.298 642.567,177.772L622.947,182.685C622.255,182.872 621.616,183.217 621.081,183.693Z" style="fill:rgb(48,115,186);fill-rule:nonzero;"/>
            <path d="M231.074,258.097L209.704,255.77L197.426,260.792C194.845,261.848 192.917,264.064 192.229,266.767C191.826,268.33 192.053,269.989 192.861,271.387L193.076,271.757C194.449,274.12 197.113,275.422 199.822,275.052L212.142,273.358C213.343,273.186 214.481,272.715 215.452,271.988L229.667,261.208L231.074,258.097Z" style="fill:white;fill-rule:nonzero;"/>
            <path d="M319.846,225.713L323.249,226.683C325.894,227.437 328.741,226.825 330.842,225.05C350.646,208.295 385.08,182.593 422.24,170.611C422.405,170.557 422.543,170.443 422.628,170.292C422.816,169.958 422.697,169.536 422.363,169.349L417.743,166.977C364.136,185.565 319.846,225.713 319.846,225.713Z" style="fill:rgb(48,115,186);fill-rule:nonzero;"/>
            <path d="M325.499,227C324.747,226.998 323.99,226.894 323.249,226.683L319.846,225.713C319.846,225.713 364.136,185.565 417.743,166.977L422.363,169.349C422.59,169.476 422.718,169.712 422.717,169.955C422.717,170.069 422.688,170.185 422.628,170.292C422.543,170.443 422.405,170.557 422.24,170.611C385.08,182.593 350.646,208.295 330.842,225.05C329.665,226.045 328.254,226.674 326.775,226.903C326.736,226.81 326.645,226.75 326.545,226.75C326.525,226.75 326.505,226.752 326.485,226.757C326.484,226.757 326.138,226.843 325.499,227Z" style="fill:rgb(202,221,242);fill-rule:nonzero;"/>
            <path d="M368.945,324.905C363.699,317.035 354.171,302.557 350.109,295.232C348.661,292.628 347.304,287.34 346.113,280.914C345.003,274.936 344.028,267.964 343.209,261.187L503.096,249.754C503.003,250.627 502.892,251.406 502.759,252.068C501.927,256.229 498.263,273.547 494.809,289.821C493.385,296.53 491.996,303.062 490.855,308.423L368.945,324.905ZM491.382,308.351C495.295,289.958 502.076,258.033 503.249,252.166C503.39,251.462 503.506,250.638 503.602,249.718L522.94,248.335L595.058,248.335L522.386,304.16L491.382,308.351ZM356.597,306.899L353.616,302.445C352.32,300.507 351.173,298.481 350.183,296.384C351.811,299.244 354.103,302.966 356.597,306.899Z" style="fill:rgb(86,138,199);fill-rule:nonzero;"/>
            <path d="M670.349,375.913C651.308,394.953 620.437,394.953 601.397,375.913C582.356,356.872 582.356,326.001 601.397,306.961C620.437,287.921 651.308,287.921 670.349,306.961C689.389,326.002 689.389,356.872 670.349,375.913Z" style="fill:rgb(12,43,52);fill-rule:nonzero;"/>
            <path d="M635.873,371.328C628.223,371.328 620.573,368.41 614.736,362.573C603.063,350.9 603.063,331.974 614.736,320.301C620.573,314.464 628.223,311.545 635.873,311.545C643.523,311.545 651.172,314.464 657.009,320.301C668.682,331.974 668.682,350.9 657.009,362.573C651.172,368.41 643.523,371.328 635.873,371.328ZM635.868,348.234C634.55,348.234 633.481,349.303 633.481,350.621L633.481,365.944C633.481,367.262 634.55,368.331 635.868,368.331L635.883,368.331C637.201,368.331 638.27,367.262 638.27,365.944L638.27,350.621C638.27,349.303 637.201,348.234 635.883,348.234L635.868,348.234ZM643.826,343.596C643.001,343.596 642.198,344.022 641.75,344.784C641.088,345.933 641.481,347.401 642.628,348.065L655.888,355.765C656.266,355.983 656.679,356.087 657.086,356.087C657.916,356.087 658.723,355.657 659.168,354.887C659.82,353.742 659.428,352.286 658.29,351.622L645.031,343.922C644.651,343.701 644.236,343.596 643.826,343.596ZM627.919,343.536C627.512,343.536 627.099,343.64 626.721,343.86L626.72,343.861L613.461,351.561C612.318,352.217 611.923,353.676 612.58,354.819L612.583,354.825C613.024,355.594 613.828,356.024 614.655,356.024C615.058,356.024 615.467,355.922 615.842,355.707L615.848,355.703L629.122,348.003C630.265,347.334 630.65,345.867 629.985,344.723C629.542,343.961 628.742,343.536 627.919,343.536ZM657.086,326.753C656.679,326.753 656.266,326.857 655.888,327.075L642.628,334.775C641.485,335.431 641.091,336.89 641.747,338.033L641.75,338.039C642.191,338.812 642.997,339.245 643.827,339.245C644.227,339.245 644.633,339.144 645.006,338.931L645.031,338.917L658.29,331.217C659.428,330.554 659.82,329.097 659.168,327.952C658.723,327.183 657.916,326.753 657.086,326.753ZM614.655,326.754C613.831,326.754 613.029,327.181 612.587,327.946L612.583,327.952C611.923,329.094 612.313,330.554 613.455,331.214L613.461,331.217L626.72,338.917C627.096,339.135 627.507,339.238 627.913,339.238C628.737,339.238 629.539,338.81 629.982,338.045L629.985,338.039C630.649,336.9 630.263,335.439 629.124,334.775L629.122,334.775L615.848,327.075C615.472,326.857 615.061,326.754 614.655,326.754ZM635.868,314.555C634.55,314.555 633.481,315.623 633.481,316.941L633.481,332.264C633.481,333.583 634.55,334.651 635.868,334.651L635.883,334.651C637.201,334.651 638.27,333.583 638.27,332.264L638.27,316.941C638.27,315.623 637.201,314.555 635.883,314.555L635.868,314.555Z" style="fill:rgb(114,127,132);fill-rule:nonzero;"/>
            <path d="M635.883,334.651L635.868,334.651C634.55,334.651 633.481,333.583 633.481,332.264L633.481,316.941C633.481,315.623 634.55,314.555 635.868,314.555L635.883,314.555C637.201,314.555 638.27,315.623 638.27,316.941L638.27,332.264C638.27,333.583 637.201,334.651 635.883,334.651Z" style="fill:rgb(151,163,166);fill-rule:nonzero;"/>
            <path d="M635.883,368.331L635.868,368.331C634.55,368.331 633.481,367.262 633.481,365.944L633.481,350.621C633.481,349.303 634.55,348.234 635.868,348.234L635.883,348.234C637.201,348.234 638.27,349.303 638.27,350.621L638.27,365.944C638.27,367.262 637.201,368.331 635.883,368.331Z" style="fill:rgb(151,163,166);fill-rule:nonzero;"/>
            <path d="M643.827,339.245C642.997,339.245 642.191,338.812 641.75,338.039L641.747,338.033C641.091,336.89 641.485,335.431 642.628,334.775L655.888,327.075C656.266,326.857 656.679,326.753 657.086,326.753C657.916,326.753 658.723,327.183 659.168,327.952C659.82,329.097 659.428,330.554 658.29,331.217L645.031,338.917L645.006,338.931C644.633,339.144 644.227,339.245 643.827,339.245Z" style="fill:rgb(151,163,166);fill-rule:nonzero;"/>
            <path d="M614.655,356.024C613.828,356.024 613.024,355.594 612.583,354.825L612.58,354.819C611.923,353.676 612.318,352.217 613.461,351.561L626.72,343.861L626.721,343.86C627.099,343.64 627.512,343.536 627.919,343.536C628.742,343.536 629.542,343.961 629.985,344.723C630.65,345.867 630.265,347.334 629.122,348.003L615.848,355.703L615.842,355.707C615.467,355.922 615.058,356.024 614.655,356.024Z" style="fill:rgb(151,163,166);fill-rule:nonzero;"/>
            <path d="M657.086,356.087C656.679,356.087 656.266,355.983 655.888,355.765L642.628,348.065C641.481,347.401 641.088,345.933 641.75,344.784C642.198,344.022 643.001,343.596 643.826,343.596C644.236,343.596 644.651,343.701 645.031,343.922L658.29,351.622C659.428,352.286 659.82,353.742 659.168,354.887C658.723,355.657 657.916,356.087 657.086,356.087Z" style="fill:rgb(151,163,166);fill-rule:nonzero;"/>
            <path d="M627.913,339.238C627.507,339.238 627.096,339.135 626.72,338.917L613.461,331.217L613.455,331.214C612.313,330.554 611.923,329.094 612.583,327.952L612.587,327.946C613.029,327.181 613.831,326.754 614.655,326.754C615.061,326.754 615.472,326.857 615.848,327.075L629.122,334.775L629.124,334.775C630.263,335.439 630.649,336.9 629.985,338.039L629.982,338.045C629.539,338.81 628.737,339.238 627.913,339.238Z" style="fill:rgb(151,163,166);fill-rule:nonzero;"/>
            <path d="M631.864,341.427C631.864,339.216 633.656,337.423 635.868,337.423L635.883,337.423C638.103,337.423 639.903,339.223 639.903,341.443C639.903,343.663 638.103,345.462 635.883,345.462C633.663,345.462 631.864,343.663 631.864,341.443L631.864,341.427Z" style="fill:rgb(12,43,52);fill-rule:nonzero;"/>
            <path d="M320.348,375.922C301.308,394.962 270.437,394.962 251.397,375.922C232.356,356.881 232.356,326.01 251.397,306.97C270.437,287.93 301.308,287.93 320.348,306.97C339.389,326.01 339.389,356.881 320.348,375.922Z" style="fill:rgb(12,43,52);fill-rule:nonzero;"/>
            <path d="M285.872,371.337C278.222,371.337 270.573,368.419 264.736,362.582C253.063,350.909 253.063,331.983 264.736,320.31C270.573,314.473 278.222,311.555 285.872,311.555C293.522,311.555 301.172,314.473 307.009,320.31C318.682,331.983 318.682,350.909 307.009,362.582C301.172,368.419 293.522,371.337 285.872,371.337ZM285.858,348.234C284.54,348.234 283.471,349.303 283.471,350.621L283.471,365.944C283.471,367.262 284.54,368.331 285.858,368.331L285.874,368.331C287.192,368.331 288.261,367.262 288.261,365.944L288.261,350.621C288.261,349.303 287.192,348.234 285.874,348.234L285.858,348.234ZM293.822,343.597C293.001,343.597 292.201,344.022 291.757,344.783L291.757,344.784C291.091,345.929 291.477,347.396 292.619,348.065L305.894,355.765C306.27,355.982 306.681,356.086 307.086,356.086C307.911,356.086 308.713,355.658 309.155,354.893L309.159,354.887C309.818,353.746 309.428,352.286 308.287,351.626L308.281,351.622L295.021,343.922C294.643,343.702 294.23,343.597 293.822,343.597ZM277.916,343.535C277.506,343.535 277.091,343.64 276.711,343.861L263.452,351.561C262.308,352.217 261.914,353.676 262.57,354.819L262.574,354.825C263.019,355.595 263.826,356.025 264.655,356.025C265.063,356.025 265.476,355.921 265.854,355.703L279.113,348.003C280.261,347.339 280.654,345.871 279.991,344.723C279.544,343.96 278.741,343.535 277.916,343.535ZM264.655,326.753C263.826,326.753 263.019,327.183 262.574,327.952C261.914,329.094 262.304,330.554 263.445,331.214L263.452,331.217L276.711,338.917C277.09,339.139 277.505,339.245 277.915,339.245C278.735,339.245 279.533,338.822 279.977,338.064L279.991,338.039C280.651,336.898 280.261,335.438 279.119,334.778L279.113,334.775L265.854,327.075C265.476,326.856 265.063,326.753 264.655,326.753ZM307.086,326.754C306.683,326.754 306.274,326.856 305.9,327.071L305.894,327.075L292.619,334.775C291.479,335.438 291.093,336.899 291.756,338.038L291.757,338.039C292.193,338.811 292.996,339.244 293.823,339.244C294.218,339.244 294.62,339.145 294.988,338.936L295.021,338.917L308.281,331.217C309.424,330.561 309.818,329.102 309.162,327.959L309.159,327.952C308.717,327.184 307.913,326.754 307.086,326.754ZM285.858,314.555C284.54,314.555 283.471,315.623 283.471,316.941L283.471,332.264C283.471,333.583 284.54,334.651 285.858,334.651L285.874,334.651C287.192,334.651 288.261,333.583 288.261,332.264L288.261,316.941C288.261,315.623 287.192,314.555 285.874,314.555L285.858,314.555Z" style="fill:rgb(114,127,132);fill-rule:nonzero;"/>
            <path d="M285.874,334.651L285.858,334.651C284.54,334.651 283.471,333.583 283.471,332.264L283.471,316.941C283.471,315.623 284.54,314.555 285.858,314.555L285.874,314.555C287.192,314.555 288.261,315.623 288.261,316.941L288.261,332.264C288.261,333.583 287.192,334.651 285.874,334.651Z" style="fill:rgb(151,163,166);fill-rule:nonzero;"/>
            <path d="M285.874,368.331L285.858,368.331C284.54,368.331 283.471,367.262 283.471,365.944L283.471,350.621C283.471,349.303 284.54,348.234 285.858,348.234L285.874,348.234C287.192,348.234 288.261,349.303 288.261,350.621L288.261,365.944C288.261,367.262 287.192,368.331 285.874,368.331Z" style="fill:rgb(151,163,166);fill-rule:nonzero;"/>
            <path d="M293.823,339.244C292.996,339.244 292.193,338.811 291.757,338.039L291.756,338.038C291.093,336.899 291.479,335.438 292.619,334.775L305.894,327.075L305.9,327.071C306.274,326.856 306.683,326.754 307.086,326.754C307.913,326.754 308.717,327.184 309.159,327.952L309.162,327.959C309.818,329.102 309.424,330.561 308.281,331.217L295.021,338.917L294.988,338.936C294.62,339.145 294.218,339.244 293.823,339.244Z" style="fill:rgb(151,163,166);fill-rule:nonzero;"/>
            <path d="M264.655,356.025C263.826,356.025 263.019,355.595 262.574,354.825L262.57,354.819C261.914,353.676 262.308,352.217 263.452,351.561L276.711,343.861C277.091,343.64 277.506,343.535 277.916,343.535C278.741,343.535 279.544,343.96 279.991,344.723C280.654,345.871 280.261,347.339 279.113,348.003L265.854,355.703C265.476,355.921 265.063,356.025 264.655,356.025Z" style="fill:rgb(151,163,166);fill-rule:nonzero;"/>
            <path d="M307.086,356.086C306.681,356.086 306.27,355.982 305.894,355.765L292.619,348.065C291.477,347.396 291.091,345.929 291.757,344.784L291.757,344.783C292.201,344.022 293.001,343.597 293.822,343.597C294.23,343.597 294.643,343.702 295.021,343.922L308.281,351.622L308.287,351.626C309.428,352.286 309.818,353.746 309.159,354.887L309.155,354.893C308.713,355.658 307.911,356.086 307.086,356.086Z" style="fill:rgb(151,163,166);fill-rule:nonzero;"/>
            <path d="M277.915,339.245C277.505,339.245 277.09,339.139 276.711,338.917L263.452,331.217L263.445,331.214C262.304,330.554 261.914,329.094 262.574,327.952C263.019,327.183 263.826,326.753 264.655,326.753C265.063,326.753 265.476,326.856 265.854,327.075L279.113,334.775L279.119,334.778C280.261,335.438 280.651,336.898 279.991,338.039L279.977,338.064C279.533,338.822 278.735,339.245 277.915,339.245Z" style="fill:rgb(151,163,166);fill-rule:nonzero;"/>
            <path d="M285.874,337.423C288.094,337.423 289.893,339.223 289.893,341.443C289.893,343.663 288.094,345.462 285.874,345.462C283.654,345.462 281.854,343.663 281.854,341.443C281.854,339.223 283.654,337.423 285.874,337.423Z" style="fill:rgb(12,43,52);fill-rule:nonzero;"/>
            <path d="M710.193,249.6C709.914,249.6 709.633,249.562 709.361,249.485L673.787,238.705C673.269,238.547 672.802,238.255 672.432,237.858L661.791,226.385C660.65,225.124 660.748,223.176 662.01,222.035C662.492,221.599 663.1,221.327 663.747,221.257L700.907,217.746C700.988,217.74 701.069,217.736 701.15,217.736C702.494,217.736 703.696,218.614 704.094,219.917C710.386,226.201 712.568,235.341 713.134,245.604C713.64,247.228 712.733,248.955 711.109,249.461C710.811,249.553 710.502,249.6 710.193,249.6Z" style="fill:rgb(13,96,174);fill-rule:nonzero;"/>
            <path d="M340.207,230.54C339.722,232.773 340.916,235.023 342.872,235.565L367.305,242.414C369.47,243.026 371.282,243.446 374.096,243.573L381.789,243.064L374.534,203.869C357.777,214.874 356.629,215.376 341.582,228.185C340.898,228.765 340.412,229.597 340.207,230.54Z" style="fill:rgb(12,43,52);fill-rule:nonzero;"/>
            <path d="M499.373,168.602L484.024,235.532L504.102,234.089L513.271,169.228C508.572,168.959 503.94,168.751 499.373,168.602Z" style="fill:rgb(12,43,52);fill-rule:nonzero;"/>
            <path d="M563.081,221.571L591.282,186.345C592.093,185.423 592.606,184.214 592.737,182.919C593.054,179.767 591.071,176.931 588.308,176.583C582.531,175.799 576.383,175.043 570.235,174.305" style="fill:rgb(12,43,52);fill-rule:nonzero;"/>
            <path d="M362.43,237.344C357.548,237.401 353.544,233.491 353.486,228.609C353.439,224.458 356.283,220.831 360.326,219.886L372.105,217.125L375.102,236.863L362.664,237.338L362.43,237.344Z" style="fill:rgb(48,115,186);fill-rule:nonzero;"/>
            <path d="M371.654,236.998L371.654,236.995L375.102,236.863L371.654,236.998Z" style="fill:rgb(1,23,33);fill-rule:nonzero;"/>
            <path d="M371.654,236.995L368.742,217.92L372.105,217.125L375.102,236.863L371.654,236.995Z" style="fill:rgb(13,96,174);fill-rule:nonzero;"/>
            <path d="M488.102,321.397C488.101,321.374 488.103,321.351 488.108,321.328C488.108,321.328 489.229,316.066 490.855,308.423L491.382,308.351C489.844,315.58 488.749,320.717 488.611,321.364L488.102,321.397ZM503.096,249.754C503.387,247.017 503.495,243.358 503.495,239.502C503.495,237.734 503.472,235.923 503.435,234.137L503.935,234.101C503.972,235.897 503.994,237.721 503.994,239.502C503.994,243.329 503.891,246.956 503.602,249.718L503.096,249.754Z" style="fill:rgb(26,56,101);fill-rule:nonzero;"/>
            <path d="M488.352,321.631C488.335,321.631 488.317,321.629 488.3,321.625C488.188,321.601 488.11,321.506 488.102,321.397L488.611,321.364C488.602,321.409 488.597,321.433 488.597,321.433C488.571,321.55 488.468,321.631 488.352,321.631Z" style="fill:rgb(0,1,6);fill-rule:nonzero;"/>
            <path d="M490.855,308.423C491.996,303.062 493.385,296.53 494.809,289.821C498.263,273.547 501.927,256.229 502.759,252.068C502.892,251.406 503.003,250.627 503.096,249.754L503.602,249.718C503.506,250.638 503.39,251.462 503.249,252.166C502.076,258.033 495.295,289.958 491.382,308.351L490.855,308.423Z" style="fill:rgb(16,64,108);fill-rule:nonzero;"/>
            <path d="M503.435,234.137C503.435,234.124 503.435,234.111 503.434,234.099C503.431,233.961 503.541,233.846 503.679,233.843L503.684,233.843C503.82,233.843 503.931,233.952 503.934,234.088C503.934,234.093 503.934,234.097 503.935,234.101L503.435,234.137Z" style="fill:rgb(0,1,6);fill-rule:nonzero;"/>
            <path d="M372.136,330.562C371.714,329.938 363.404,317.634 356.597,306.899L368.669,324.942L368.945,324.905C370.198,326.785 371.207,328.288 371.838,329.226C372.306,329.922 372.566,330.306 372.567,330.307C372.573,330.316 372.578,330.325 372.583,330.335C372.508,330.372 372.434,330.409 372.36,330.447L372.136,330.562ZM350.183,296.384C350.004,296.07 349.834,295.767 349.672,295.475C348.165,292.75 346.821,287.456 345.622,281.006C344.425,274.559 343.385,266.97 342.53,259.714C340.82,245.204 339.85,232.031 339.849,232.028C339.839,231.891 339.943,231.771 340.08,231.761C340.087,231.76 340.093,231.76 340.099,231.76L340.103,231.76C340.126,232.315 340.248,232.852 340.452,233.34C340.518,234.186 340.617,235.404 340.745,236.921C341.006,240 341.391,244.307 341.887,249.217C342.265,252.95 342.708,257.032 343.209,261.187L342.838,261.214L346.227,283.426C346.914,287.926 348.25,292.29 350.183,296.384Z" style="fill:rgb(26,56,101);fill-rule:nonzero;"/>
            <path d="M372.36,330.697C372.28,330.697 372.201,330.659 372.153,330.587C372.153,330.587 372.147,330.579 372.136,330.562L372.36,330.447C372.434,330.409 372.508,330.372 372.583,330.335C372.639,330.445 372.605,330.583 372.5,330.654C372.457,330.683 372.408,330.697 372.36,330.697Z" style="fill:rgb(0,1,6);fill-rule:nonzero;"/>
            <path d="M340.452,233.34C340.248,232.852 340.126,232.315 340.103,231.76L340.104,231.76C340.129,232.307 340.249,232.835 340.45,233.317C340.451,233.325 340.451,233.333 340.452,233.34Z" style="fill:rgb(26,56,101);fill-rule:nonzero;"/>
            <path d="M368.669,324.942L356.597,306.899C354.103,302.966 351.811,299.244 350.183,296.384C348.25,292.29 346.914,287.926 346.227,283.426L342.838,261.214L343.209,261.187C344.028,267.964 345.003,274.936 346.113,280.914C347.304,287.34 348.661,292.628 350.109,295.232C354.171,302.557 363.699,317.035 368.945,324.905L368.669,324.942Z" style="fill:rgb(16,64,108);fill-rule:nonzero;"/>
            <path d="M340.45,233.317C340.249,232.835 340.129,232.307 340.104,231.76C340.232,231.763 340.339,231.862 340.348,231.992C340.348,231.994 340.383,232.462 340.45,233.317Z" style="fill:rgb(0,1,6);fill-rule:nonzero;"/>
            <path d="M209.473,255.865L209.473,255.864C209.42,255.737 209.482,255.591 209.609,255.539C221.938,250.499 262.695,240.585 272.764,238.969C283.429,237.261 316.567,229.191 324.677,227.201C324.989,227.125 325.264,227.057 325.499,227L325.514,227C325.937,227 326.359,226.967 326.775,226.903C326.78,226.914 326.784,226.927 326.787,226.94C326.821,227.074 326.739,227.209 326.605,227.242C326.6,227.243 285.088,237.5 272.843,239.463C262.96,241.044 222.958,250.77 210.231,255.827L209.704,255.77L209.473,255.865Z" style="fill:rgb(26,56,101);fill-rule:nonzero;"/>
            <path d="M209.704,256.02C209.606,256.02 209.512,255.961 209.473,255.865L209.704,255.77L210.231,255.827C210.083,255.886 209.939,255.944 209.799,256.001C209.768,256.014 209.736,256.02 209.704,256.02Z" style="fill:rgb(93,97,99);fill-rule:nonzero;"/>
            <path d="M325.514,227L325.499,227C326.138,226.843 326.484,226.757 326.485,226.757C326.505,226.752 326.525,226.75 326.545,226.75C326.645,226.75 326.736,226.81 326.775,226.903C326.359,226.967 325.937,227 325.514,227Z" style="fill:rgb(79,89,100);fill-rule:nonzero;"/>
            <path d="M706.384,214.902L693.941,214.902C692.812,214.899 691.689,214.749 690.599,214.455L627.968,197.084C627.144,196.851 626.398,196.398 625.812,195.775L620.699,190.216C619.917,189.337 619.532,188.243 619.531,187.152C619.53,185.877 620.053,184.607 621.081,183.693C621.616,183.217 622.255,182.872 622.947,182.685L642.567,177.772C642.349,178.213 642.247,178.681 642.248,179.142C642.251,180.274 642.88,181.362 643.965,181.898L643.968,181.9L704.382,213.7C705.075,214.07 705.737,214.471 706.384,214.902Z" style="fill:rgb(202,221,242);fill-rule:nonzero;"/>
            <path d="M413.648,210.209C413.648,210.209 421.132,236.526 424.766,237.459C431.35,239.151 453.607,235.33 453.165,234.599L451.344,225.328C451.344,225.328 428.62,223.693 428.149,223.877L420.938,207.373L413.648,210.209Z" style="fill:rgb(243,118,98);fill-rule:nonzero;"/>
            <path d="M420.989,212.034C420.989,212.034 423.258,209.922 423.32,207.36C423.383,204.798 424.114,202.768 424.029,200.86C423.944,198.952 422.347,200.976 421.716,202.225C421.084,203.473 420.356,204.883 419.495,204.257C418.634,203.631 414.886,195.276 413.593,194.544C412.3,193.812 412.483,195.353 412.483,195.353C412.483,195.353 411.519,193.349 410.62,193.515C410.387,193.558 409.914,194.036 410.211,195.019C410.878,197.229 412.517,201.795 412.517,201.795C412.428,201.531 410.003,196.039 409.532,195.264C408.917,194.251 408.11,194.087 407.535,194.463C406.715,194.998 409.491,201.91 409.404,202.283C409.404,202.283 407.939,198.25 406.691,198.059C405.443,197.867 406.227,200.456 407.351,202.607C408.382,204.58 409.888,208.719 411.13,210.622C412.661,212.967 414.216,214.198 416.812,213.8C419.408,213.402 420.989,212.034 420.989,212.034Z" style="fill:rgb(243,118,98);fill-rule:nonzero;"/>
            <path d="M414.676,200.681L414.517,200.604C413.936,198.921 413.279,197.265 412.547,195.643L412.61,195.478L412.775,195.54C413.51,197.17 414.17,198.833 414.753,200.522L414.676,200.681Z" style="fill:rgb(175,83,69);fill-rule:nonzero;"/>
            <path d="M409.998,203.965L409.822,203.948L409.839,203.772C411.637,202.291 413.875,201.356 416.192,201.118L416.329,201.23L416.218,201.367C413.951,201.599 411.757,202.516 409.998,203.965Z" style="fill:rgb(175,83,69);fill-rule:nonzero;"/>
            <path d="M417.409,210.325L417.246,210.256C417.042,209.754 416.94,209.214 416.94,208.674C416.94,208.247 417.004,207.82 417.133,207.413C417.425,206.489 418.046,205.677 418.86,205.152L419.033,205.189L418.995,205.362C418.231,205.854 417.645,206.621 417.371,207.488C417.25,207.871 417.19,208.272 417.19,208.674C417.19,209.183 417.286,209.691 417.478,210.162L417.409,210.325Z" style="fill:rgb(175,83,69);fill-rule:nonzero;"/>
            <path d="M472.314,201.467C472.314,201.467 480.639,194.433 480.28,192.083C479.921,189.732 478.584,190.457 478.584,190.457C478.584,190.457 481.466,184.781 478.627,183.807C475.789,182.833 475.591,183.787 475.591,183.787C475.591,183.787 476.715,179.156 474.464,177.763C472.752,176.69 472.024,178.823 472.024,178.823C472.024,178.823 468.755,173.749 464.841,173.824C462.906,173.972 461.954,175.219 462.228,176.709L462.271,176.901C462.271,176.901 454.372,173.46 450.702,175.62C447.033,177.781 451.819,180.15 451.819,180.15C451.819,180.15 444.124,179.347 442.616,182.443C441.418,184.902 444.842,186.558 444.842,186.558C444.842,186.558 443.628,186.971 442.59,187.909C440.612,189.696 441.821,193.085 444.484,193.181L444.546,193.183C444.955,193.195 445.69,193.284 445.987,193.002C445.987,193.002 444.665,195.789 447.513,196.684C450.361,197.579 451.715,194.278 451.715,194.278L472.314,201.467Z" style="fill:rgb(12,43,52);fill-rule:nonzero;"/>
            <path d="M469.694,219.578C469.694,219.578 469.23,215.565 472.085,205.81L471.57,205.56C471.964,204.196 472.382,202.935 472.776,201.842L472.785,201.8L459.411,210.019C459.717,213.141 458.581,219.171 457.906,221.717L461.372,227.581L469.694,219.578Z" style="fill:rgb(243,118,98);fill-rule:nonzero;"/>
            <path d="M458.806,217.498C458.898,216.99 459.023,216.253 459.101,215.586C459.347,215.604 459.595,215.613 459.843,215.613C462.212,215.613 464.633,214.807 466.759,213.014C466.291,214.372 465.352,215.827 463.622,216.838C462.114,216.952 460.494,217.18 458.806,217.498Z" style="fill:rgb(204,96,79);fill-rule:nonzero;"/>
            <path d="M450.24,186.924C448.661,190.009 448.086,196.801 453.01,195.398C457.933,193.994 452.955,181.62 450.24,186.924Z" style="fill:rgb(12,43,52);fill-rule:nonzero;"/>
            <path d="M472.905,195.313C471.983,203.777 471.634,208.569 467.135,212.683C460.367,218.872 450.297,214.597 448.668,206.004C447.201,198.269 448.955,185.728 457.436,182.822C465.791,179.96 473.827,186.85 472.905,195.313Z" style="fill:rgb(243,118,98);fill-rule:nonzero;"/>
            <path d="M460.64,197.191C460.599,198.059 460.105,198.737 459.537,198.705C458.969,198.672 458.541,197.942 458.582,197.073C458.623,196.205 459.117,195.527 459.685,195.559C460.253,195.592 460.681,196.322 460.64,197.191Z" style="fill:rgb(12,43,52);fill-rule:nonzero;"/>
            <path d="M452.113,196.958C452.073,197.827 451.578,198.505 451.01,198.472C450.442,198.44 450.014,197.71 450.055,196.841C450.096,195.972 450.59,195.294 451.158,195.327C451.727,195.359 452.154,196.09 452.113,196.958Z" style="fill:rgb(12,43,52);fill-rule:nonzero;"/>
            <path d="M454.907,196.607C454.907,196.607 451.954,200.794 450.99,202.509C452.148,203.659 454.254,203.253 454.254,203.253L454.907,196.607Z" style="fill:rgb(241,91,94);fill-rule:nonzero;"/>
            <path d="M462.743,192.528C462.606,192.564 462.453,192.527 462.346,192.417C461.069,191.117 459.594,191.384 459.579,191.387C459.359,191.429 459.143,191.286 459.099,191.066C459.054,190.846 459.197,190.633 459.417,190.59C459.495,190.574 461.343,190.239 462.927,191.853C463.085,192.014 463.083,192.271 462.923,192.427L462.743,192.528Z" style="fill:rgb(12,43,52);fill-rule:nonzero;"/>
            <path d="M448.49,193.035L448.295,192.902C448.154,192.726 448.179,192.469 448.353,192.328C450.092,190.909 451.873,191.485 451.956,191.5C452.169,191.571 452.287,191.801 452.219,192.015C452.152,192.229 451.925,192.345 451.713,192.278C451.64,192.251 450.263,191.825 448.866,192.964C448.757,193.053 448.615,193.075 448.49,193.035Z" style="fill:rgb(12,43,52);fill-rule:nonzero;"/>
            <path d="M456.723,208.928" style="fill:rgb(12,43,52);fill-rule:nonzero;"/>
            <path d="M455.401,205.642C456.766,205.211 459.283,204.299 460.503,203.019C460.503,203.019 460.722,203.392 460.849,203.957C460.963,204.444 461.026,205.063 460.863,205.705C460.562,206.877 459.535,208.144 456.776,208.91L456.723,208.928L456.695,208.934C456.695,208.934 455.208,209.314 454.464,205.918C454.464,205.918 454.831,205.829 455.401,205.642Z" style="fill:rgb(12,43,52);fill-rule:nonzero;"/>
            <path d="M455.401,205.642L455.926,206.56C458.523,205.832 460.254,204.971 460.849,203.957C460.722,203.392 460.503,203.019 460.503,203.019C459.283,204.299 456.766,205.211 455.401,205.642Z" style="fill:white;fill-rule:nonzero;"/>
            <path d="M456.776,208.91C459.535,208.144 460.562,206.877 460.863,205.705C459.933,206.002 458.845,206.464 457.969,207.163C457.296,207.694 456.955,208.321 456.776,208.91Z" style="fill:rgb(241,91,94);fill-rule:nonzero;"/>
            <path d="M470.363,201.869C469.63,201.469 468.858,201.032 468.46,200.299C468.089,199.616 468.109,198.794 468.178,198.021C468.25,197.218 468.365,196.419 468.522,195.629C467.767,196.008 466.855,195.404 466.442,194.668C465.824,193.566 465.863,192.227 465.953,190.968C464.991,191.173 463.902,190.887 463.269,190.133C462.637,189.379 462.577,188.158 463.236,187.427C460.112,187.847 456.906,187.647 453.858,186.842C454.069,187.231 453.824,187.705 453.555,188.056C452.463,189.478 450.831,190.475 449.067,190.797C448.808,190.844 448.487,190.852 448.343,190.631C448.267,190.514 448.267,190.364 448.275,190.224C448.378,188.505 449.367,186.929 450.666,185.799C451.965,184.67 453.557,183.934 455.162,183.31C457.825,182.275 460.612,181.502 463.463,181.31C466.313,181.117 469.238,181.525 471.816,182.755C472.38,183.024 472.94,183.343 473.335,183.827C473.709,184.287 473.907,184.863 474.08,185.431C475.133,188.882 475.534,192.531 475.257,196.129L470.363,201.869Z" style="fill:rgb(12,43,52);fill-rule:nonzero;"/>
            <path d="M475.923,202.547C475.142,204.701 473.434,206.282 471.711,207.039C469.119,208.178 467.4,205.946 467.766,203.283C468.096,200.886 469.842,197.405 472.614,197.391C475.345,197.377 476.817,200.085 475.923,202.547Z" style="fill:rgb(243,118,98);fill-rule:nonzero;"/>
            <path d="M470.1,202.718C470.087,202.718 470.073,202.717 470.06,202.715C469.923,202.693 469.831,202.565 469.853,202.429C469.977,201.66 470.305,200.927 470.795,200.322C471.205,199.817 471.759,199.375 472.44,199.239C472.562,199.215 472.687,199.203 472.812,199.203C473.39,199.204 473.987,199.455 474.309,199.979C474.381,200.097 474.343,200.251 474.225,200.322C474.185,200.347 474.14,200.359 474.095,200.359C474.011,200.359 473.929,200.316 473.882,200.239C473.68,199.902 473.252,199.703 472.814,199.703L472.812,199.703C472.719,199.703 472.626,199.712 472.536,199.73C472.017,199.831 471.544,200.19 471.183,200.637C470.749,201.173 470.456,201.827 470.346,202.508C470.327,202.631 470.22,202.718 470.1,202.718Z" style="fill:rgb(204,96,79);fill-rule:nonzero;"/>
            <path d="M457.267,233.389C457.267,233.389 432.402,240.656 423.371,240.971C414.339,241.286 394.351,237.076 394.351,237.076L395.479,227.899L424.818,229.398L456.719,218.742L457.267,233.389Z" style="fill:rgb(243,118,98);fill-rule:nonzero;"/>
            <path d="M448.384,238.995L453.274,218.782L465.692,216.616C466.235,216.537 476.322,215.708 479.347,226.773L480.023,235.568L448.384,238.995Z" style="fill:rgb(12,43,52);fill-rule:nonzero;"/>
            <path d="M460.08,236.98C459.392,236.969 440.036,240.509 440.036,240.509L436.053,224.769C436.053,224.769 445.05,221.005 453.275,218.782C462.466,216.297 471.086,215.526 473.071,219.816C476.834,227.945 460.08,236.98 460.08,236.98Z" style="fill:rgb(12,43,52);fill-rule:nonzero;"/>
            <path d="M435.25,224.227C434.498,224.179 433.777,224.134 433.1,224.093C433.117,224.09 433.145,224.089 433.183,224.089C433.461,224.089 434.288,224.155 435.25,224.227Z" style="fill:rgb(139,155,174);fill-rule:nonzero;"/>
            <path d="M424.818,229.398L420.318,229.168C422.305,228.367 432.783,224.143 433.1,224.093C433.777,224.134 434.498,224.179 435.25,224.227C435.347,224.234 435.446,224.241 435.545,224.248C436.049,224.285 436.577,224.322 437.075,224.351C436.421,224.615 436.053,224.769 436.053,224.769L436.258,225.577L424.818,229.398Z" style="fill:rgb(175,83,69);fill-rule:nonzero;"/>
            <path d="M424.818,229.545C424.818,229.545 420.464,229.323 419.994,229.298C419.994,229.298 420.11,229.252 420.318,229.168L424.818,229.398L436.258,225.577L436.269,225.622L424.818,229.545Z" style="fill:rgb(175,83,69);fill-rule:nonzero;"/>
            <path d="M436.269,225.622L436.258,225.577L436.053,224.769C436.053,224.769 436.421,224.615 437.075,224.351C437.65,224.385 438.184,224.408 438.593,224.408C438.936,224.408 439.191,224.392 439.306,224.352C439.367,224.331 439.4,224.322 439.411,224.322C439.511,224.322 437.369,225.245 437.369,225.245L436.269,225.622Z" style="fill:rgb(1,23,33);fill-rule:nonzero;"/>
            <path d="M385.846,223.721C385.283,224.062 378.633,230.934 378.633,230.934L379.93,239.453L388.291,230.823L385.846,223.721Z" style="fill:rgb(12,43,52);fill-rule:nonzero;"/>
            <path d="M395.862,241.491C394.392,242.216 392.612,241.613 391.886,240.143L378.62,213.264C377.895,211.794 378.498,210.014 379.968,209.289C381.438,208.563 383.218,209.167 383.943,210.637L397.21,237.516C397.935,238.985 397.332,240.765 395.862,241.491Z" style="fill:rgb(12,43,52);fill-rule:nonzero;"/>
            <path d="M405.414,228.633L394.495,227.166L391.336,223.347C391.336,223.347 385.789,222.849 384.598,223.838C383.407,224.826 382.208,227.978 382.208,227.978C382.208,227.978 380.763,230.561 383.24,231.917C383.24,231.917 381.672,234.216 384.467,235.839C384.467,235.839 382.407,237.002 385.363,238.217C388.32,239.433 390.658,238.726 392.469,238.077C394.279,237.427 397.481,237.703 397.481,237.703L407.411,239.453L405.414,228.633Z" style="fill:rgb(243,118,98);fill-rule:nonzero;"/>
        </g>
    </g>
</svg>
