<?xml version="1.0" encoding="UTF-8" standalone="no"?>
<!DOCTYPE svg PUBLIC "-//W3C//DTD SVG 1.1//EN" "http://www.w3.org/Graphics/SVG/1.1/DTD/svg11.dtd">
<svg width="100%" height="100%" viewBox="0 0 2084 1323" version="1.1" xmlns="http://www.w3.org/2000/svg" xmlns:xlink="http://www.w3.org/1999/xlink" xml:space="preserve" xmlns:serif="http://www.serif.com/" style="fill-rule:evenodd;clip-rule:evenodd;stroke-linejoin:round;stroke-miterlimit:2;">
    <g transform="matrix(1,0,0,1,0,-231.506)">
        <g transform="matrix(4.16667,0,0,4.16667,0,0)">
            <rect x="0" y="327.837" width="500" height="0.25" style="fill:rgb(236,237,237);fill-rule:nonzero;"/>
        </g>
        <g transform="matrix(4.16667,0,0,4.16667,0,0)">
            <rect x="416.779" y="343.933" width="33.122" height="0.25" style="fill:rgb(236,237,237);fill-rule:nonzero;"/>
        </g>
        <g transform="matrix(4.16667,0,0,4.16667,0,0)">
            <rect x="322.527" y="346.646" width="8.693" height="0.25" style="fill:rgb(236,237,237);fill-rule:nonzero;"/>
        </g>
        <g transform="matrix(4.16667,0,0,4.16667,0,0)">
            <rect x="396.586" y="334.646" width="19.192" height="0.25" style="fill:rgb(236,237,237);fill-rule:nonzero;"/>
        </g>
        <g transform="matrix(4.16667,0,0,4.16667,0,0)">
            <rect x="52.459" y="336.327" width="43.193" height="0.25" style="fill:rgb(236,237,237);fill-rule:nonzero;"/>
        </g>
        <g transform="matrix(4.16667,0,0,4.16667,0,0)">
            <rect x="104.556" y="336.327" width="6.333" height="0.25" style="fill:rgb(236,237,237);fill-rule:nonzero;"/>
        </g>
        <g transform="matrix(4.16667,0,0,4.16667,0,0)">
            <rect x="131.471" y="340.549" width="93.676" height="0.25" style="fill:rgb(236,237,237);fill-rule:nonzero;"/>
        </g>
        <g transform="matrix(4.16667,0,0,4.16667,0,0)">
            <path d="M443.889,361.677C443.889,367.931 357.083,373 250,373C142.918,373 56.111,367.931 56.111,361.677C56.111,355.423 142.918,350.353 250,350.353C357.083,350.353 443.889,355.423 443.889,361.677Z" style="fill:rgb(246,248,249);fill-rule:nonzero;"/>
        </g>
        <g transform="matrix(4.16667,0,0,4.16667,0,0)">
            <path d="M245.471,180.548L247.154,182.631L87.422,309.862L94.225,318.285L95.159,319.441L254.891,192.21L256.573,194.293L259.565,180.519L245.471,180.548Z" style="fill:rgb(62,117,186);fill-rule:nonzero;"/>
        </g>
        <g transform="matrix(4.16667,0,0,4.16667,0,0)">
            <path d="M108.45,308.855C106.817,307.144 104.513,306.078 101.961,306.078L101.799,306.087C101.766,303.83 100.966,301.759 99.649,300.123L171.167,243.157C170.787,244.195 170.406,245.226 170.024,246.245C167.022,254.283 163.991,261.658 161.345,266.722L147.573,277.692L145.484,279.356L141.479,282.546L140.886,283.019L111.015,306.811L110.064,307.569L108.45,308.855ZM190.974,243.122C192.688,239.013 194.363,234.909 195.914,231.056C196.943,228.518 197.91,226.087 198.802,223.837L212.657,225.851L210.316,227.715L210.191,227.814L191.146,242.984L190.974,243.122ZM232.527,210.023C227.498,208.538 221.993,207.322 217.298,206.412L247.154,182.631L245.471,180.548L259.565,180.519L256.573,194.293L254.891,192.21L254.755,192.318L254.505,192.517L242.721,201.904L242.471,202.103L232.527,210.023Z" style="fill:rgb(194,215,239);fill-rule:nonzero;"/>
        </g>
        <g transform="matrix(4.16667,0,0,4.16667,0,0)">
            <path d="M63.912,318.761C63.912,315.856 66.267,313.502 69.171,313.502C69.696,313.502 70.203,313.582 70.681,313.724C70.604,313.197 70.563,312.659 70.563,312.11C70.563,305.96 75.549,300.974 81.699,300.974C82.4,300.974 83.085,301.042 83.751,301.166C85.462,298.364 88.539,296.488 92.062,296.488C97.394,296.488 101.72,300.773 101.799,306.087L101.961,306.078C106.916,306.078 110.932,310.095 110.932,315.049C110.932,320.004 106.916,324.019 101.961,324.019L69.016,324.019L69.023,324.013C66.188,323.933 63.912,321.615 63.912,318.761Z" style="fill:rgb(62,117,186);fill-rule:nonzero;"/>
        </g>
        <g transform="matrix(4.16667,0,0,4.16667,0,0)">
            <path d="M101.961,324.019L69.016,324.019L69.023,324.013C66.188,323.933 63.912,321.615 63.912,318.761C63.912,315.856 66.267,313.502 69.171,313.502C69.696,313.502 70.203,313.582 70.681,313.724C70.604,313.197 70.563,312.659 70.563,312.11C70.563,305.96 75.549,300.974 81.699,300.974C82.4,300.974 83.085,301.042 83.751,301.166C85.462,298.364 88.539,296.488 92.062,296.488C97.394,296.488 101.72,300.773 101.799,306.087L101.961,306.078C106.916,306.078 110.932,310.095 110.932,315.049C110.932,320.004 106.916,324.019 101.961,324.019Z" style="fill:rgb(215,229,245);fill-rule:nonzero;"/>
        </g>
        <g transform="matrix(4.16667,0,0,4.16667,0,0)">
            <path d="M398.751,261.148L402.74,266.087L328.494,326.062L344.625,346.033L346.838,348.775L421.085,288.8L425.075,293.738L432.169,261.083L398.751,261.148Z" style="fill:rgb(62,117,186);fill-rule:nonzero;"/>
        </g>
        <g transform="matrix(4.16667,0,0,4.16667,0,0)">
            <path d="M367.48,332.102C366.567,327.806 363.02,324.489 358.61,323.904C355.614,319.124 350.314,315.934 344.256,315.934C342.971,315.934 341.719,316.078 340.517,316.35L373.869,289.409L383.699,289.409L385.791,279.778L402.74,266.087L398.751,261.148L432.169,261.083L427.643,281.914L427.303,283.482L426.877,285.44L426.249,288.335L425.823,290.294L425.194,293.188L425.075,293.738L423.046,291.227L422.292,290.294L421.085,288.8L418.448,290.93L415.652,293.188L409.013,298.552L407.55,299.734L405.847,301.109L405.428,301.447L392.906,311.563L390.011,313.901L372.944,327.687L372.759,327.837L372.45,328.087L367.48,332.102Z" style="fill:rgb(156,187,226);fill-rule:nonzero;"/>
        </g>
        <g transform="matrix(4.16667,0,0,4.16667,0,0)">
            <path d="M358.61,323.904C355.614,319.124 350.314,315.934 344.256,315.934C338.098,315.934 332.723,319.231 329.756,324.144C328.977,323.928 328.16,323.802 327.311,323.802C322.297,323.802 318.233,327.866 318.233,332.88L318.234,332.892L313.448,332.892C310.955,332.892 308.915,334.932 308.915,337.425C308.915,339.918 310.955,341.958 313.448,341.958L329.964,341.958C332.971,346.682 338.241,349.825 344.256,349.825C348.999,349.825 353.282,347.871 356.357,344.73C356.643,344.754 356.93,344.774 357.222,344.774C363.014,344.774 367.708,340.08 367.708,334.288C367.708,328.969 363.744,324.585 358.61,323.904Z" style="fill:rgb(62,117,186);fill-rule:nonzero;"/>
        </g>
        <g transform="matrix(4.16667,0,0,4.16667,0,0)">
            <path d="M344.256,349.825C338.241,349.825 332.971,346.682 329.964,341.958L313.448,341.958C310.955,341.958 308.915,339.918 308.915,337.425C308.915,334.932 310.955,332.892 313.448,332.892L318.234,332.892L318.233,332.88C318.233,327.866 322.297,323.802 327.311,323.802C328.16,323.802 328.977,323.928 329.756,324.144C332.723,319.231 338.098,315.934 344.256,315.934C350.314,315.934 355.614,319.124 358.61,323.904C363.744,324.585 367.708,328.969 367.708,334.288C367.708,340.08 363.014,344.774 357.222,344.774C356.93,344.774 356.643,344.754 356.357,344.73C353.282,347.871 348.999,349.825 344.256,349.825Z" style="fill:rgb(215,229,245);fill-rule:nonzero;"/>
        </g>
        <g transform="matrix(4.16667,0,0,4.16667,0,0)">
            <path d="M247.141,120.99L245.699,119.472C245.311,119.063 244.742,118.88 244.189,118.986L242.032,119.401C241.327,119.536 240.79,120.111 240.703,120.823L239.598,129.862L242.944,131.145C247.017,129.373 246.806,123.992 246.806,123.992L247.392,122.921C247.736,122.291 247.635,121.511 247.141,120.99Z" style="fill:rgb(250,177,117);fill-rule:nonzero;"/>
        </g>
        <g transform="matrix(4.16667,0,0,4.16667,0,0)">
            <path d="M206.774,148.078C206.774,148.078 209.977,148.272 211.856,148.226C213.75,148.201 215.636,148.166 217.489,148.06C219.334,147.941 221.169,147.812 222.852,147.579C223.686,147.461 224.496,147.311 225.134,147.138C225.433,147.052 225.722,146.96 225.854,146.907C225.969,146.854 225.955,146.878 225.936,146.902C225.918,146.924 225.895,146.945 225.952,146.913C226.265,146.647 226.872,145.924 227.403,145.254C227.951,144.558 228.502,143.808 229.048,143.045C230.146,141.515 231.235,139.926 232.321,138.326L238.853,128.634L243.958,131.351C243.207,133.218 242.394,135.017 241.579,136.838C240.735,138.639 239.875,140.436 238.988,142.231C238.087,144.02 237.152,145.798 236.135,147.579C235.62,148.468 235.09,149.36 234.508,150.269C233.902,151.198 233.345,152.067 232.292,153.214C231.725,153.845 230.686,154.61 230.016,154.94C229.279,155.343 228.644,155.594 228.017,155.831C226.789,156.274 225.676,156.555 224.582,156.8C222.4,157.285 220.323,157.574 218.254,157.772C214.111,158.184 210.136,158.338 205.982,158.244L206.774,148.078Z" style="fill:rgb(62,117,186);fill-rule:nonzero;"/>
        </g>
        <g transform="matrix(4.16667,0,0,4.16667,0,0)">
            <path d="M215.614,158.005C215.613,158.004 215.611,158.003 215.61,158.001C216.486,157.937 217.366,157.86 218.254,157.772C219.558,157.647 220.865,157.486 222.2,157.263C220.865,157.488 219.558,157.649 218.254,157.775C217.364,157.865 216.484,157.935 215.614,158.005ZM226.312,156.372C226.861,156.22 227.425,156.045 228.017,155.831C228.348,155.706 228.681,155.577 229.03,155.424C228.68,155.578 228.347,155.708 228.014,155.835C227.423,156.047 226.859,156.221 226.312,156.372Z" style="fill:rgb(249,250,250);fill-rule:nonzero;"/>
        </g>
        <g transform="matrix(4.16667,0,0,4.16667,0,0)">
            <path d="M231.82,153.678C231.996,153.521 232.157,153.364 232.292,153.214C232.565,152.917 232.804,152.638 233.02,152.372C232.805,152.639 232.566,152.918 232.294,153.215C232.159,153.365 231.997,153.522 231.82,153.678ZM235.381,148.86C235.482,148.692 235.581,148.524 235.68,148.356C235.582,148.524 235.482,148.692 235.381,148.86ZM211.553,148.231C211.657,148.23 211.757,148.228 211.854,148.226C213.754,148.195 215.634,148.165 217.494,148.056C217.874,148.033 218.254,148.009 218.632,147.984C218.252,148.01 217.871,148.035 217.489,148.06C215.636,148.166 213.75,148.201 211.856,148.226C211.758,148.228 211.657,148.23 211.553,148.231ZM208.593,148.169C207.591,148.127 206.813,148.08 206.775,148.078L206.774,148.076C206.774,148.076 207.565,148.125 208.593,148.169ZM222.043,147.682C222.317,147.649 222.588,147.614 222.854,147.576C222.991,147.557 223.127,147.538 223.262,147.518C223.127,147.539 222.989,147.559 222.852,147.579C222.586,147.615 222.316,147.65 222.043,147.682ZM224.752,147.234C224.884,147.203 225.012,147.169 225.134,147.135C225.182,147.122 225.23,147.109 225.277,147.096C225.23,147.11 225.182,147.124 225.134,147.138C225.012,147.171 224.885,147.203 224.752,147.234ZM225.918,146.93C225.911,146.93 225.924,146.916 225.936,146.902C225.947,146.889 225.956,146.875 225.941,146.875C225.93,146.875 225.904,146.884 225.854,146.907C225.844,146.911 225.832,146.915 225.82,146.92C225.832,146.915 225.844,146.91 225.854,146.905C225.904,146.883 225.93,146.874 225.942,146.874C225.958,146.874 225.949,146.889 225.938,146.903C225.93,146.914 225.92,146.925 225.918,146.93ZM228.21,144.197C228.49,143.819 228.768,143.434 229.044,143.045C229.873,141.892 230.696,140.705 231.518,139.505C230.698,140.705 229.876,141.892 229.048,143.045C228.77,143.434 228.49,143.82 228.21,144.197ZM241.004,138.059C241.197,137.652 241.388,137.246 241.579,136.838C241.759,136.436 241.939,136.035 242.118,135.634L242.118,135.635C241.941,136.035 241.762,136.434 241.584,136.835C241.391,137.243 241.198,137.651 241.004,138.059Z" style="fill:white;fill-rule:nonzero;"/>
        </g>
        <g transform="matrix(4.16667,0,0,4.16667,0,0)">
            <path d="M242.118,135.635L242.118,135.634C242.168,135.522 242.218,135.41 242.268,135.297C242.218,135.41 242.168,135.522 242.118,135.635Z" style="fill:rgb(251,253,253);fill-rule:nonzero;"/>
        </g>
        <g transform="matrix(4.16667,0,0,4.16667,0,0)">
            <path d="M215.61,158.001C213.55,155.753 210.853,154.872 209.015,154.527C207.983,150.289 206.822,148.162 206.775,148.078C206.813,148.08 207.591,148.127 208.593,148.169C209.401,148.203 210.357,148.233 211.186,148.233C211.312,148.233 211.434,148.233 211.553,148.231C211.657,148.23 211.758,148.228 211.856,148.226C213.75,148.201 215.636,148.166 217.489,148.06C217.871,148.035 218.252,148.01 218.632,147.984C219.796,147.906 220.947,147.813 222.043,147.682C222.316,147.65 222.586,147.615 222.852,147.579C222.989,147.559 223.127,147.539 223.262,147.518C223.791,147.438 224.301,147.343 224.752,147.234C224.885,147.203 225.012,147.171 225.134,147.138C225.182,147.124 225.23,147.11 225.277,147.096C225.5,147.034 225.702,146.969 225.82,146.92C225.832,146.915 225.844,146.911 225.854,146.907C225.904,146.884 225.93,146.875 225.941,146.875C225.956,146.875 225.947,146.889 225.936,146.902C225.924,146.916 225.911,146.93 225.918,146.93C225.918,146.931 225.918,146.932 225.92,146.932C225.923,146.932 225.933,146.927 225.954,146.915C226.264,146.645 226.874,145.925 227.404,145.255C227.673,144.913 227.942,144.559 228.21,144.197C228.49,143.82 228.77,143.434 229.048,143.045C229.876,141.892 230.698,140.705 231.518,139.505C231.787,139.113 232.055,138.72 232.324,138.326L238.854,128.635L243.954,131.355C243.415,132.69 242.846,133.994 242.268,135.297C242.218,135.41 242.168,135.522 242.118,135.634C241.939,136.035 241.759,136.436 241.579,136.838C241.388,137.246 241.197,137.652 241.004,138.059C240.342,139.451 239.672,140.843 238.984,142.235C238.084,144.016 237.154,145.795 236.134,147.576C235.985,147.836 235.834,148.096 235.68,148.356C235.581,148.524 235.482,148.692 235.381,148.86C235.101,149.325 234.811,149.792 234.504,150.266C234.059,150.955 233.636,151.611 233.02,152.372C232.804,152.638 232.565,152.917 232.292,153.214C232.157,153.364 231.996,153.521 231.82,153.678C231.251,154.182 230.525,154.684 230.014,154.935C229.665,155.128 229.341,155.286 229.03,155.424C228.681,155.577 228.348,155.706 228.017,155.831C227.425,156.045 226.861,156.22 226.312,156.372C225.721,156.535 225.15,156.671 224.584,156.795C223.777,156.977 222.984,157.131 222.2,157.263C220.865,157.486 219.558,157.647 218.254,157.772C217.366,157.86 216.486,157.937 215.61,158.001Z" style="fill:rgb(194,215,239);fill-rule:nonzero;"/>
        </g>
        <g transform="matrix(4.16667,0,0,4.16667,0,0)">
            <path d="M213.039,158.158C213.894,158.117 214.75,158.065 215.61,158.001C215.611,158.003 215.613,158.004 215.614,158.005C214.753,158.067 213.895,158.118 213.039,158.158Z" style="fill:rgb(224,224,223);fill-rule:nonzero;"/>
        </g>
        <g transform="matrix(4.16667,0,0,4.16667,0,0)">
            <path d="M209.771,158.259C209.542,156.871 209.283,155.628 209.015,154.527C210.853,154.872 213.55,155.753 215.61,158.001C214.75,158.065 213.894,158.117 213.039,158.158C211.95,158.209 210.863,158.242 209.771,158.259Z" style="fill:rgb(171,194,229);fill-rule:nonzero;"/>
        </g>
        <g transform="matrix(4.16667,0,0,4.16667,0,0)">
            <path d="M153.29,327.469C153.29,327.469 144.237,321.241 144.792,317.056C144.847,316.646 144.607,316.282 144.172,316.217L136.498,315.056C136.14,315.002 135.757,315.165 135.545,315.463L131.011,321.816L133.048,322.554L134.142,321.787L134.656,323.135C145.711,327.135 150.531,328.745 152.968,328.848C153.639,327.985 153.29,327.469 153.29,327.469Z" style="fill:rgb(3,4,4);fill-rule:nonzero;"/>
        </g>
        <g transform="matrix(4.16667,0,0,4.16667,0,0)">
            <path d="M204.274,209.835C204.274,209.835 203.814,211.035 203.004,213.115C202.134,215.365 200.854,218.645 199.314,222.546C198.284,225.145 197.144,228.025 195.914,231.056C190.264,245.096 182.964,262.467 178.134,271.235C168.884,288.015 144.784,319.886 144.784,319.886L135.154,316.365C135.154,316.365 152.494,283.546 161.244,266.915C163.914,261.846 166.984,254.386 170.024,246.245C171.474,242.375 172.914,238.346 174.304,234.355C174.934,232.556 175.554,230.756 176.154,228.985C177.744,224.306 179.234,219.796 180.544,215.775C180.704,215.275 180.864,214.775 181.024,214.296C181.554,212.645 182.054,211.085 182.504,209.645C184.384,203.726 185.554,199.825 185.594,199.676L185.604,199.676L194.194,204.355L204.274,209.835Z" style="fill:rgb(24,46,53);fill-rule:nonzero;"/>
        </g>
        <g transform="matrix(4.16667,0,0,4.16667,0,0)">
            <path d="M174.304,234.355C174.934,232.556 175.554,230.756 176.154,228.985C177.269,225.704 178.335,222.505 179.324,219.501C183.749,222.082 188.796,222.614 190.623,222.726C191.078,222.751 191.333,222.751 191.333,222.751L198.802,223.837C197.91,226.087 196.943,228.518 195.914,231.056C188.054,232.636 180.054,233.705 174.304,234.355Z" style="fill:rgb(14,29,33);fill-rule:nonzero;"/>
        </g>
        <g transform="matrix(4.16667,0,0,4.16667,0,0)">
            <path d="M173.499,153.403L173.505,153.425C174.891,158.077 175.704,163.483 176.158,168.813C176.507,172.96 176.641,177.042 176.658,180.704C176.672,184.394 176.561,187.661 176.441,190.161C176.28,193.374 176.09,195.352 176.09,195.352L206.474,196.914C215.59,163.875 206.774,148.078 206.774,148.078C206.774,148.078 202.989,147.696 198.627,147.891C198.065,147.908 197.494,147.952 196.91,147.996C193.194,148.307 187.273,149.481 183.321,150.374C182.506,150.554 181.688,150.765 180.888,150.981C176.919,152.064 173.499,153.403 173.499,153.403Z" style="fill:rgb(62,117,186);fill-rule:nonzero;"/>
        </g>
        <g transform="matrix(4.16667,0,0,4.16667,0,0)">
            <path d="M206.593,196.48C207.03,194.874 207.425,193.308 207.781,191.784C207.426,193.308 207.031,194.874 206.593,196.48ZM208.421,188.89L208.42,188.89C209.299,184.667 209.871,180.779 210.207,177.225L210.209,177.225C209.871,180.78 209.3,184.666 208.421,188.89ZM210.438,174.331L210.436,174.331C210.478,173.664 210.512,173.012 210.538,172.372L210.539,172.372C210.513,173.012 210.48,173.664 210.438,174.331ZM210.605,169.477L210.604,169.477C210.607,168.809 210.602,168.156 210.589,167.519L210.591,167.519C210.604,168.156 210.609,168.808 210.605,169.477ZM210.474,164.624L210.473,164.624C210.328,162.242 210.076,160.122 209.769,158.26L209.771,158.26C210.078,160.122 210.33,162.242 210.474,164.624Z" style="fill:rgb(249,250,250);fill-rule:nonzero;"/>
        </g>
        <g transform="matrix(4.16667,0,0,4.16667,0,0)">
            <path d="M210.591,167.519L210.589,167.519C210.568,166.514 210.529,165.55 210.473,164.624L210.474,164.624C210.53,165.55 210.57,166.514 210.591,167.519Z" style="fill:rgb(251,253,253);fill-rule:nonzero;"/>
        </g>
        <g transform="matrix(4.16667,0,0,4.16667,0,0)">
            <path d="M210.539,172.372L210.538,172.372C210.578,171.376 210.599,170.411 210.604,169.477L210.605,169.477C210.601,170.411 210.579,171.376 210.539,172.372Z" style="fill:rgb(251,253,253);fill-rule:nonzero;"/>
        </g>
        <g transform="matrix(4.16667,0,0,4.16667,0,0)">
            <path d="M210.209,177.225L210.207,177.225C210.301,176.235 210.377,175.27 210.436,174.331L210.438,174.331C210.378,175.27 210.303,176.235 210.209,177.225Z" style="fill:rgb(251,253,253);fill-rule:nonzero;"/>
        </g>
        <g transform="matrix(4.16667,0,0,4.16667,0,0)">
            <path d="M207.781,191.784C208.011,190.801 208.223,189.838 208.42,188.89L208.421,188.89C208.224,189.837 208.011,190.803 207.781,191.784Z" style="fill:rgb(251,253,253);fill-rule:nonzero;"/>
        </g>
        <g transform="matrix(4.16667,0,0,4.16667,0,0)">
            <path d="M206.774,148.078C206.755,148.076 205.413,147.941 203.414,147.874C205.426,147.94 206.774,148.076 206.774,148.076L206.774,148.078Z" style="fill:white;fill-rule:nonzero;"/>
        </g>
        <g transform="matrix(4.16667,0,0,4.16667,0,0)">
            <rect x="209.769" y="158.259" width="0.002" height="0.001" style="fill:rgb(194,215,239);fill-rule:nonzero;"/>
        </g>
        <g transform="matrix(4.16667,0,0,4.16667,0,0)">
            <path d="M206.775,148.078L206.774,148.078L206.774,148.076L206.775,148.078Z" style="fill:white;fill-rule:nonzero;"/>
        </g>
        <g transform="matrix(4.16667,0,0,4.16667,0,0)">
            <path d="M209.015,154.527L209.013,154.527C207.96,150.204 206.774,148.078 206.774,148.078L206.775,148.078C206.822,148.162 207.983,150.289 209.015,154.527Z" style="fill:rgb(237,245,252);fill-rule:nonzero;"/>
        </g>
        <g transform="matrix(4.16667,0,0,4.16667,0,0)">
            <path d="M209.769,158.259C209.54,156.871 209.281,155.628 209.013,154.527L209.015,154.527C209.283,155.628 209.542,156.871 209.771,158.259L209.769,158.259Z" style="fill:rgb(230,237,248);fill-rule:nonzero;"/>
        </g>
        <g transform="matrix(4.16667,0,0,4.16667,0,0)">
            <path d="M176.461,189.733C176.496,188.9 176.53,187.975 176.564,186.985C176.608,185.612 176.641,184.104 176.656,182.492C176.637,185.252 176.554,187.719 176.461,189.733ZM176.645,179.253C176.635,178.602 176.621,177.938 176.604,177.266C176.604,177.095 176.596,176.925 176.594,176.754C176.618,177.603 176.635,178.436 176.645,179.253ZM173.5,153.409L173.494,153.405C173.494,153.405 173.495,153.404 173.499,153.403L173.5,153.409ZM177.593,151.965C178.597,151.641 179.722,151.297 180.894,150.975C181.635,150.778 182.403,150.581 183.165,150.409C182.402,150.581 181.637,150.779 180.888,150.981C179.717,151.301 178.595,151.642 177.593,151.965ZM196.863,148L196.861,147.999C196.875,147.998 196.89,147.997 196.904,147.996C196.97,147.991 197.036,147.986 197.101,147.982C197.038,147.987 196.974,147.992 196.91,147.996C196.894,147.998 196.879,147.999 196.863,148Z" style="fill:white;fill-rule:nonzero;"/>
        </g>
        <g transform="matrix(4.16667,0,0,4.16667,0,0)">
            <path d="M206.593,196.48L176.424,190.54C176.431,190.414 176.437,190.286 176.444,190.155C176.45,190.017 176.456,189.877 176.461,189.733C176.554,187.719 176.637,185.252 176.656,182.492C176.661,181.91 176.664,181.313 176.664,180.705C176.659,180.228 176.653,179.744 176.645,179.253C176.635,178.436 176.618,177.603 176.594,176.754L176.594,176.695C176.544,174.826 176.454,172.885 176.324,170.915C176.348,170.833 176.372,170.75 176.396,170.667C181.619,168.545 190.148,164.032 194.405,156.028L196.831,153.326L199.536,154.496L198.448,148.913L196.863,148C196.879,147.999 196.894,147.998 196.91,147.996C196.974,147.992 197.038,147.987 197.101,147.982C197.621,147.945 198.128,147.904 198.634,147.895C199.54,147.854 200.422,147.837 201.251,147.837C202.027,147.837 202.756,147.852 203.414,147.874C205.413,147.941 206.755,148.076 206.774,148.078C206.774,148.078 207.96,150.204 209.013,154.527C209.281,155.628 209.54,156.871 209.769,158.259L209.769,158.26C210.076,160.122 210.328,162.242 210.473,164.624C210.529,165.55 210.568,166.514 210.589,167.519C210.602,168.156 210.607,168.809 210.604,169.477C210.599,170.411 210.578,171.376 210.538,172.372C210.512,173.012 210.478,173.664 210.436,174.331C210.377,175.27 210.301,176.235 210.207,177.225C209.871,180.779 209.299,184.667 208.42,188.89C208.223,189.838 208.011,190.801 207.781,191.784C207.425,193.308 207.03,194.874 206.593,196.48ZM177.12,166.163C177.289,163.128 176.844,160.835 176.844,160.835C176.83,160.843 176.817,160.85 176.804,160.858C176.829,160.539 176.844,160.198 176.844,159.833C176.844,159.351 176.819,158.827 176.761,158.26C176.358,154.276 173.802,153.312 173.802,153.312C173.713,153.371 173.624,153.43 173.536,153.49C173.528,153.465 173.521,153.44 173.514,153.415L173.5,153.409L173.499,153.403C173.601,153.363 175.272,152.715 177.593,151.965C178.595,151.642 179.717,151.301 180.888,150.981C181.637,150.779 182.402,150.581 183.165,150.409L189.485,156.433L191.588,154.558L192.412,155.852C192.412,155.852 187.192,162.179 177.12,166.163Z" style="fill:rgb(194,215,239);fill-rule:nonzero;"/>
        </g>
        <g transform="matrix(4.16667,0,0,4.16667,0,0)">
            <path d="M225.265,275.979C225.265,275.979 216.585,269.241 217.379,265.097C217.458,264.689 217.239,264.312 216.808,264.223L209.214,262.622C208.859,262.548 208.468,262.688 208.239,262.974L203.347,269.056L205.338,269.908L206.474,269.206L206.91,270.582C217.717,275.21 222.436,277.095 224.864,277.337C225.582,276.515 225.265,275.979 225.265,275.979Z" style="fill:rgb(3,4,4);fill-rule:nonzero;"/>
        </g>
        <g transform="matrix(4.16667,0,0,4.16667,0,0)">
            <path d="M190.623,222.726C191.078,222.751 191.333,222.751 191.333,222.751L227.756,228.046L207.022,262.443L217.404,266.395C217.404,266.395 254.947,225.916 246.56,216.686C239.662,209.095 205.863,204.477 205.863,204.477L206.971,196.555L175.708,190.399C162.344,219.654 186.148,222.452 190.623,222.726Z" style="fill:rgb(24,46,53);fill-rule:nonzero;"/>
        </g>
        <g transform="matrix(4.16667,0,0,4.16667,0,0)">
            <path d="M175.338,193.51L174.675,193.381L175.282,191.274L175.871,191.389L175.338,193.51Z" style="fill:rgb(24,46,53);fill-rule:nonzero;"/>
        </g>
        <g transform="matrix(4.16667,0,0,4.16667,0,0)">
            <path d="M199.93,198.269L186.583,195.685L187.104,193.567L200.396,196.144L199.93,198.269Z" style="fill:rgb(24,46,53);fill-rule:nonzero;"/>
        </g>
        <g transform="matrix(4.16667,0,0,4.16667,0,0)">
            <path d="M201.425,196.345L207.068,197.438L206.692,199.577L200.979,198.472L201.425,196.345Z" style="fill:rgb(24,46,53);fill-rule:nonzero;"/>
        </g>
        <g transform="matrix(4.16667,0,0,4.16667,0,0)">
            <path d="M176.901,191.588L186.078,193.368L185.536,195.483L176.389,193.713L176.901,191.588Z" style="fill:rgb(24,46,53);fill-rule:nonzero;"/>
        </g>
        <g transform="matrix(4.16667,0,0,4.16667,0,0)">
            <path d="M175.338,193.51L174.675,193.381L175.282,191.274L175.871,191.389L175.338,193.51Z" style="fill:rgb(75,91,97);fill-rule:nonzero;"/>
        </g>
        <g transform="matrix(4.16667,0,0,4.16667,0,0)">
            <path d="M199.93,198.269L186.583,195.685L187.104,193.567L200.396,196.144L199.93,198.269Z" style="fill:rgb(75,91,97);fill-rule:nonzero;"/>
        </g>
        <g transform="matrix(4.16667,0,0,4.16667,0,0)">
            <path d="M206.692,199.577L206.552,199.55L200.979,198.472L201.425,196.345L207.068,197.438L206.692,199.577Z" style="fill:rgb(75,91,97);fill-rule:nonzero;"/>
        </g>
        <g transform="matrix(4.16667,0,0,4.16667,0,0)">
            <path d="M185.536,195.483L176.389,193.713L176.901,191.588L186.078,193.368L185.536,195.483Z" style="fill:rgb(75,91,97);fill-rule:nonzero;"/>
        </g>
        <g transform="matrix(4.16667,0,0,4.16667,0,0)">
            <path d="M196.226,195.755L195.939,195.688L195.638,196.978L195.538,197.057L195.52,197.055L192.179,196.462L192.095,196.362L192.098,196.337L192.434,194.998L192.531,194.922L192.551,194.924L195.859,195.564L195.941,195.665L195.939,195.688L196.226,195.755L196.513,195.821L196.53,195.665C196.53,195.34 196.303,195.052 195.971,194.986L192.663,194.346L192.664,194.346L192.531,194.333C192.221,194.333 191.941,194.543 191.862,194.856L191.862,194.855L191.527,196.194L191.506,196.362C191.506,196.69 191.74,196.982 192.077,197.042L192.076,197.042L195.418,197.636L195.419,197.636L195.538,197.646C195.855,197.646 196.137,197.43 196.212,197.112L196.514,195.814L196.513,195.821L196.226,195.755Z" style="fill:white;fill-rule:nonzero;"/>
        </g>
        <g transform="matrix(4.16667,0,0,4.16667,0,0)">
            <path d="M193.508,195.57L192.488,195.391C192.327,195.362 192.175,195.469 192.146,195.629C192.118,195.79 192.225,195.942 192.385,195.971L193.406,196.15C193.566,196.179 193.719,196.072 193.747,195.911C193.775,195.751 193.668,195.598 193.508,195.57Z" style="fill:white;fill-rule:nonzero;"/>
        </g>
        <g transform="matrix(4.16667,0,0,4.16667,0,0)">
            <path d="M186.469,136.588L194.404,143.166C193.628,146.386 194.976,149.355 196.54,149.905C196.54,149.905 197.699,152.665 195.467,153.131C190.944,154.073 185.784,149.692 185.784,149.692C188.177,147.121 187.312,140.699 186.469,136.588Z" style="fill:rgb(251,180,116);fill-rule:nonzero;"/>
        </g>
        <g transform="matrix(4.16667,0,0,4.16667,0,0)">
            <path d="M194.401,143.163L193.572,142.476L194.401,143.163Z" style="fill:rgb(205,205,205);fill-rule:nonzero;"/>
        </g>
        <g transform="matrix(4.16667,0,0,4.16667,0,0)">
            <path d="M194.023,145.445C192.261,145.223 189.829,143.338 189.627,141.501C189.526,140.585 189.558,139.702 189.704,139.272L193.572,142.476L194.401,143.163C194.214,143.925 194.071,144.697 194.023,145.445Z" style="fill:rgb(205,146,90);fill-rule:nonzero;"/>
        </g>
        <g transform="matrix(4.16667,0,0,4.16667,0,0)">
            <path d="M193.475,123.591C195.395,124.788 197.998,128.397 194.77,129.265C191.542,130.132 190.174,121.533 193.475,123.591Z" style="fill:rgb(24,46,53);fill-rule:nonzero;"/>
        </g>
        <g transform="matrix(4.16667,0,0,4.16667,0,0)">
            <path d="M183.563,135.925C186.92,140.353 188.662,143.118 192.562,143.911C198.428,145.103 202.693,139.129 200.72,133.771C198.944,128.949 193.752,122.517 188.029,123.738C182.39,124.941 180.205,131.496 183.563,135.925Z" style="fill:rgb(250,177,117);fill-rule:nonzero;"/>
        </g>
        <g transform="matrix(4.16667,0,0,4.16667,0,0)">
            <path d="M184.554,131.103L180.521,126.397C180.521,126.397 175.193,130.317 177.612,132.69C176.017,136.443 182.354,141.681 187.895,140.604C188.537,137.22 183.602,131.438 183.602,131.438C183.906,131.347 184.227,131.231 184.554,131.103Z" style="fill:rgb(24,46,53);fill-rule:nonzero;"/>
        </g>
        <g transform="matrix(4.16667,0,0,4.16667,0,0)">
            <path d="M184.343,140.96C185.503,141.903 186.99,142.215 188.209,142.06C190.042,141.828 190.255,140.001 189.156,138.633C188.167,137.402 186.021,136.039 184.464,136.962C182.931,137.871 183.016,139.882 184.343,140.96Z" style="fill:rgb(250,177,117);fill-rule:nonzero;"/>
        </g>
        <g transform="matrix(4.16667,0,0,4.16667,0,0)">
            <path d="M191.395,132.475C191.645,132.851 192.046,133.021 192.291,132.855C192.535,132.688 192.531,132.249 192.28,131.872C192.03,131.496 191.628,131.326 191.384,131.493C191.139,131.659 191.144,132.099 191.395,132.475Z" style="fill:rgb(24,46,53);fill-rule:nonzero;"/>
        </g>
        <g transform="matrix(4.16667,0,0,4.16667,0,0)">
            <path d="M195.625,129.598C195.875,129.975 196.276,130.144 196.521,129.978C196.766,129.812 196.761,129.372 196.511,128.996C196.26,128.62 195.859,128.45 195.614,128.616C195.37,128.782 195.375,129.222 195.625,129.598Z" style="fill:rgb(24,46,53);fill-rule:nonzero;"/>
        </g>
        <g transform="matrix(4.16667,0,0,4.16667,0,0)">
            <path d="M194.404,130.7C194.404,130.7 196.667,132.196 198.288,132.568C198.026,133.6 196.71,134.08 196.71,134.08L194.404,130.7Z" style="fill:rgb(246,137,62);fill-rule:nonzero;"/>
        </g>
        <g transform="matrix(4.16667,0,0,4.16667,0,0)">
            <path d="M193.229,136.63C193.064,136.719 192.897,136.823 192.73,136.945L192.7,137.131L192.884,137.161C194.492,135.992 196.044,136.572 196.06,136.578L196.23,136.501L196.155,136.329C196.093,136.305 194.754,135.804 193.229,136.63Z" style="fill:rgb(24,46,53);fill-rule:nonzero;"/>
        </g>
        <g transform="matrix(4.16667,0,0,4.16667,0,0)">
            <path d="M188.5,131.24C188.592,131.244 188.685,131.2 188.739,131.116C189.382,130.115 190.36,130.09 190.37,130.09C190.517,130.088 190.636,129.967 190.635,129.821C190.634,129.674 190.514,129.557 190.368,129.559C190.316,129.559 189.09,129.59 188.293,130.832C188.213,130.956 188.249,131.121 188.372,131.199L188.5,131.24Z" style="fill:rgb(24,46,53);fill-rule:nonzero;"/>
        </g>
        <g transform="matrix(4.16667,0,0,4.16667,0,0)">
            <path d="M195.674,126.184L195.676,126.031C195.636,125.889 195.49,125.805 195.349,125.844C193.937,126.235 193.571,127.401 193.548,127.451C193.505,127.591 193.583,127.741 193.723,127.786C193.862,127.83 194.01,127.753 194.054,127.615C194.067,127.566 194.36,126.671 195.494,126.358L195.674,126.184Z" style="fill:rgb(24,46,53);fill-rule:nonzero;"/>
        </g>
        <g transform="matrix(4.16667,0,0,4.16667,0,0)">
            <path d="M183.602,131.438C183.602,131.438 194.16,127.002 194.807,121.938C195.453,116.874 190.993,118.949 190.993,118.949C190.993,118.949 193.058,118.808 192.856,120.312C192.856,120.312 189.29,117.879 185.893,119.97C185.893,119.97 187.48,119.939 188.316,121.117C188.316,121.117 185.089,121.747 181.468,124.431C177.848,127.115 171.345,136.725 183.602,131.438Z" style="fill:rgb(24,46,53);fill-rule:nonzero;"/>
        </g>
        <g transform="matrix(4.16667,0,0,4.16667,0,0)">
            <path d="M205.863,204.477L188.654,202.501C188.654,202.501 193.578,201.693 201.67,201.693C203.099,201.693 204.624,201.718 206.24,201.777L205.863,204.477Z" style="fill:rgb(14,29,33);fill-rule:nonzero;"/>
        </g>
        <g transform="matrix(4.16667,0,0,4.16667,0,0)">
            <path d="M176.324,170.915C176.318,170.845 176.312,170.774 176.306,170.703C176.336,170.691 176.366,170.679 176.396,170.667C176.372,170.75 176.348,170.833 176.324,170.915Z" style="fill:rgb(171,194,229);fill-rule:nonzero;"/>
        </g>
        <g transform="matrix(4.16667,0,0,4.16667,0,0)">
            <path d="M175.954,166.605C175.875,165.885 175.793,165.166 175.703,164.45L175.704,164.45C175.704,164.45 176.603,163.379 176.804,160.858C176.817,160.85 176.83,160.843 176.844,160.835C176.844,160.835 177.289,163.128 177.12,166.163C176.739,166.313 176.349,166.461 175.954,166.605Z" style="fill:rgb(171,194,229);fill-rule:nonzero;"/>
        </g>
        <g transform="matrix(4.16667,0,0,4.16667,0,0)">
            <path d="M147.645,195.483L144.655,202.501L151.13,204.101C151.13,204.101 153.91,199.49 151.196,195.974L147.645,195.483Z" style="fill:rgb(251,180,116);fill-rule:nonzero;"/>
        </g>
        <g transform="matrix(4.16667,0,0,4.16667,0,0)">
            <path d="M145.121,207.911L150.233,207.949L151.13,204.101L144.655,202.501L145.121,207.911Z" style="fill:rgb(251,180,116);fill-rule:nonzero;"/>
        </g>
        <g transform="matrix(4.16667,0,0,4.16667,0,0)">
            <path d="M176.761,158.26C177.206,162.661 175.704,164.45 175.704,164.45C175.704,164.45 171.441,167.128 169.592,168.499C168.02,169.684 166.479,170.887 165.019,172.092C164.296,172.698 163.599,173.311 162.961,173.918C162.329,174.518 161.737,175.144 161.363,175.627C161.196,175.82 161.028,176.134 160.849,176.414C160.667,176.708 160.477,177.147 160.28,177.504C159.889,178.31 159.5,179.164 159.132,180.06C158.394,181.847 157.694,183.71 157.029,185.6C155.644,189.359 154.354,193.235 153.027,197.046L147.121,195.642C147.721,191.493 148.532,187.45 149.469,183.353C149.963,181.316 150.51,179.276 151.137,177.202C151.449,176.167 151.805,175.112 152.205,174.03C152.444,173.461 152.635,172.947 152.935,172.338C153.25,171.722 153.54,171.118 153.975,170.478C154.775,169.282 155.559,168.381 156.35,167.511C157.14,166.65 157.934,165.858 158.732,165.092C160.322,163.565 161.954,162.175 163.607,160.836C166.918,158.144 170.241,155.686 173.802,153.312C173.802,153.312 176.358,154.276 176.761,158.26Z" style="fill:rgb(62,117,186);fill-rule:nonzero;"/>
        </g>
        <g transform="matrix(4.16667,0,0,4.16667,0,0)">
            <path d="M153.027,197.046L151.689,196.728L147.536,195.741L147.121,195.642C147.721,191.493 148.532,187.45 149.469,183.353C149.963,181.316 150.51,179.276 151.137,177.202C151.449,176.167 151.805,175.112 152.205,174.03C152.444,173.461 152.635,172.947 152.935,172.338C153.25,171.722 153.54,171.118 153.975,170.478C154.775,169.282 155.559,168.381 156.35,167.511C157.14,166.65 157.934,165.858 158.732,165.092C160.322,163.565 161.954,162.175 163.607,160.836C166.918,158.144 170.241,155.686 173.802,153.312C173.802,153.312 176.358,154.276 176.761,158.26C176.819,158.827 176.844,159.351 176.844,159.833C176.844,160.198 176.829,160.539 176.804,160.858C176.603,163.379 175.704,164.45 175.704,164.45L175.703,164.45C175.702,164.45 175.702,164.45 175.702,164.451C175.604,164.512 171.42,167.144 169.592,168.499C168.02,169.684 166.479,170.887 165.019,172.092C164.296,172.698 163.599,173.311 162.961,173.918C162.329,174.518 161.737,175.144 161.363,175.627C161.196,175.82 161.028,176.134 160.849,176.414C160.667,176.708 160.477,177.147 160.28,177.504C159.889,178.31 159.5,179.164 159.132,180.06C158.394,181.847 157.694,183.71 157.029,185.6C155.644,189.359 154.354,193.235 153.027,197.046Z" style="fill:rgb(194,215,239);fill-rule:nonzero;"/>
        </g>
        <g transform="matrix(4.16667,0,0,4.16667,0,0)">
            <path d="M190.188,152.359L192.412,155.852C192.412,155.852 184.659,165.248 169.822,168.349L168.831,171.368L171.987,172.194C171.987,172.194 188.011,168.048 194.405,156.028L197.709,152.349L193.815,151.042L190.188,152.359Z" style="fill:rgb(62,117,186);fill-rule:nonzero;"/>
        </g>
        <g transform="matrix(4.16667,0,0,4.16667,0,0)">
            <path d="M183.003,150.255L186.616,147.095L193.815,151.042L194.647,146.725L198.448,148.913L199.536,154.496L194.232,152.201L189.485,156.433L183.003,150.255Z" style="fill:rgb(62,117,186);fill-rule:nonzero;"/>
        </g>
        <g transform="matrix(4.16667,0,0,4.16667,0,0)">
            <path d="M189.485,156.433L183.003,150.255L186.616,147.095L193.815,151.042L194.647,146.725L198.448,148.913L199.536,154.496L196.831,153.326L194.232,152.201L191.588,154.558L189.485,156.433Z" style="fill:rgb(175,200,233);fill-rule:nonzero;"/>
        </g>
        <g transform="matrix(4.16667,0,0,4.16667,0,0)">
            <path d="M282.188,87.711C282.188,87.711 275.464,96.051 268.64,95.359C261.816,94.666 258.329,97.436 258.329,97.436L257.661,100.765L261.321,100.271C261.321,100.271 261.321,97.634 268.442,97.93C275.563,98.227 280.904,92.105 282.981,89.331L282.188,87.711Z" style="fill:rgb(62,117,186);fill-rule:nonzero;"/>
        </g>
        <g transform="matrix(4.16667,0,0,4.16667,0,0)">
            <path d="M330.493,73.847L330.351,73.19C330.279,72.93 330.318,72.896 330.072,72.248C329.681,71.235 329.023,70.399 328.442,69.876C327.238,68.8 326.247,68.42 325.384,68.079C323.673,67.474 322.31,67.283 320.96,67.117C319.625,66.965 318.359,66.9 317.112,66.866C314.623,66.795 312.224,66.918 309.845,67.067C305.076,67.382 300.489,67.945 295.773,68.76L297.489,78.612C301.801,77.925 306.297,77.296 310.648,76.845C312.831,76.622 315.005,76.487 317.093,76.42C318.133,76.393 319.157,76.397 320.1,76.455C320.763,76.494 321.419,76.569 321.911,76.654C321.942,76.994 321.955,77.365 321.943,77.758C321.88,79.458 321.454,81.448 320.873,83.431C319.698,87.413 317.857,91.55 315.951,95.415L320.697,98.58C323.728,94.747 326.224,90.763 328.289,86.182C329.276,83.872 330.149,81.433 330.545,78.573C330.736,77.14 330.804,75.577 330.493,73.847Z" style="fill:rgb(62,117,186);fill-rule:nonzero;"/>
        </g>
        <g transform="matrix(4.16667,0,0,4.16667,0,0)">
            <path d="M328.794,84.966C328.793,84.965 328.792,84.964 328.792,84.963C329.521,83.123 330.143,81.175 330.486,78.978C330.148,81.173 329.52,83.127 328.794,84.966ZM321.131,82.504C321.414,81.442 321.644,80.389 321.784,79.396C321.813,79.21 321.838,79.027 321.859,78.845C321.839,79.028 321.815,79.212 321.788,79.399C321.787,79.398 321.785,79.397 321.784,79.396C321.644,80.389 321.414,81.442 321.131,82.504ZM321.911,76.655C321.871,76.648 321.83,76.641 321.788,76.634C321.83,76.64 321.871,76.647 321.911,76.654L321.911,76.655ZM320.831,76.512C320.594,76.49 320.349,76.471 320.104,76.456C319.576,76.423 319.027,76.408 318.465,76.405C319.028,76.408 319.576,76.423 320.1,76.455C320.347,76.47 320.594,76.489 320.831,76.512ZM330.629,74.792C330.595,74.483 330.551,74.167 330.493,73.847L330.351,73.19C330.279,72.93 330.318,72.896 330.072,72.248C329.681,71.235 329.023,70.399 328.442,69.876C327.238,68.8 326.247,68.42 325.384,68.079C324.836,67.886 324.325,67.734 323.837,67.613C324.324,67.734 324.836,67.884 325.384,68.076C326.244,68.416 327.234,68.796 328.444,69.876C329.024,70.396 329.684,71.236 330.074,72.246C330.314,72.896 330.284,72.926 330.354,73.186L330.494,73.846C330.551,74.167 330.596,74.482 330.629,74.792ZM297.202,68.52C297.2,68.52 297.198,68.519 297.196,68.519C298.361,68.33 299.519,68.157 300.675,67.999C299.52,68.157 298.364,68.331 297.202,68.52ZM321.747,67.219C321.483,67.182 321.221,67.149 320.96,67.117C319.625,66.965 318.359,66.9 317.112,66.866C316.613,66.852 316.117,66.845 315.625,66.845C313.661,66.845 311.747,66.948 309.845,67.067C309.191,67.11 308.541,67.158 307.894,67.211C308.541,67.158 309.19,67.11 309.844,67.066C311.746,66.946 313.661,66.845 315.624,66.845C316.117,66.845 316.613,66.852 317.114,66.866C318.364,66.896 319.624,66.966 320.964,67.116C321.224,67.148 321.484,67.182 321.747,67.219Z" style="fill:white;fill-rule:nonzero;"/>
        </g>
        <g transform="matrix(4.16667,0,0,4.16667,0,0)">
            <path d="M328.792,84.963C326.453,82.786 324.096,80.948 321.788,79.399C321.815,79.212 321.839,79.028 321.859,78.845C321.903,78.471 321.93,78.106 321.944,77.756C321.954,77.366 321.944,76.996 321.914,76.656C321.913,76.655 321.912,76.655 321.911,76.655L321.911,76.654C321.871,76.647 321.83,76.64 321.788,76.634C321.506,76.586 321.178,76.546 320.831,76.512C320.594,76.489 320.347,76.47 320.1,76.455C319.576,76.423 319.028,76.408 318.465,76.405C318.385,76.404 318.305,76.404 318.225,76.404C317.852,76.404 317.474,76.409 317.094,76.416L316.864,76.426C312.113,73.876 307.898,72.5 305.008,71.772C301.342,69.99 298.451,68.943 297.202,68.52C298.364,68.331 299.52,68.157 300.675,67.999C303.073,67.672 305.464,67.409 307.894,67.211C308.541,67.158 309.191,67.11 309.845,67.067C311.747,66.948 313.661,66.845 315.625,66.845C316.117,66.845 316.613,66.852 317.112,66.866C318.359,66.9 319.625,66.965 320.96,67.117C321.221,67.149 321.483,67.182 321.747,67.219C322.413,67.313 323.096,67.429 323.837,67.613C324.325,67.734 324.836,67.886 325.384,68.079C326.247,68.42 327.238,68.8 328.442,69.876C329.023,70.399 329.681,71.235 330.072,72.248C330.318,72.896 330.279,72.93 330.351,73.19L330.493,73.847C330.551,74.167 330.595,74.483 330.629,74.792C330.774,76.151 330.699,77.403 330.544,78.576C330.526,78.711 330.506,78.845 330.486,78.978C330.143,81.175 329.521,83.123 328.792,84.963Z" style="fill:rgb(194,215,239);fill-rule:nonzero;"/>
        </g>
        <g transform="matrix(4.16667,0,0,4.16667,0,0)">
            <path d="M313.507,76.603C313.506,76.602 313.505,76.602 313.504,76.601C314.02,76.565 314.533,76.534 315.043,76.507C314.534,76.534 314.022,76.566 313.507,76.603Z" style="fill:rgb(230,230,230);fill-rule:nonzero;"/>
        </g>
        <g transform="matrix(4.16667,0,0,4.16667,0,0)">
            <path d="M313.504,76.601C310.492,74.61 307.563,73.013 305.008,71.772C307.898,72.5 312.113,73.876 316.864,76.426C316.263,76.447 315.655,76.474 315.043,76.507C314.533,76.534 314.02,76.565 313.504,76.601Z" style="fill:rgb(171,194,229);fill-rule:nonzero;"/>
        </g>
        <g transform="matrix(4.16667,0,0,4.16667,0,0)">
            <path d="M327.016,88.834C327.015,88.833 327.014,88.832 327.013,88.831C327.456,87.969 327.881,87.087 328.289,86.182C328.461,85.78 328.629,85.374 328.792,84.963C328.792,84.964 328.793,84.965 328.794,84.966C328.634,85.376 328.464,85.786 328.294,86.186C327.885,87.091 327.459,87.972 327.016,88.834ZM321.132,82.505L321.131,82.504C321.414,81.442 321.644,80.389 321.784,79.396C321.785,79.397 321.787,79.398 321.788,79.399C321.645,80.392 321.416,81.443 321.132,82.505Z" style="fill:rgb(230,230,230);fill-rule:nonzero;"/>
        </g>
        <g transform="matrix(4.16667,0,0,4.16667,0,0)">
            <path d="M327.013,88.831C325.209,86.508 323.221,84.41 321.149,82.521C321.143,82.515 321.138,82.51 321.132,82.505C321.416,81.443 321.645,80.392 321.788,79.399C324.096,80.948 326.453,82.786 328.792,84.963C328.629,85.374 328.461,85.78 328.289,86.182C327.881,87.087 327.456,87.969 327.013,88.831Z" style="fill:rgb(171,194,229);fill-rule:nonzero;"/>
        </g>
        <g transform="matrix(4.16667,0,0,4.16667,0,0)">
            <path d="M264.883,75.828C265.156,76.174 265.194,76.599 264.968,76.777C264.742,76.955 264.337,76.82 264.064,76.474C263.792,76.129 263.753,75.703 263.979,75.525C264.205,75.347 264.61,75.482 264.883,75.828Z" style="fill:rgb(24,46,53);fill-rule:nonzero;"/>
        </g>
        <g transform="matrix(4.16667,0,0,4.16667,0,0)">
            <path d="M265.226,76.574C265.226,76.574 266.016,79.189 265.91,80.835C266.973,80.923 267.807,79.84 267.807,79.84L265.226,76.574Z" style="fill:rgb(241,89,84);fill-rule:nonzero;"/>
        </g>
        <g transform="matrix(4.16667,0,0,4.16667,0,0)">
            <path d="M264.632,72.908L264.693,72.729C264.687,72.586 264.566,72.476 264.423,72.482C262.993,72.546 262.375,73.567 262.348,73.611C262.275,73.734 262.316,73.893 262.439,73.965C262.563,74.037 262.722,73.995 262.793,73.875C262.813,73.841 263.305,73.05 264.446,72.999L264.632,72.908Z" style="fill:rgb(24,46,53);fill-rule:nonzero;"/>
        </g>
        <g transform="matrix(4.16667,0,0,4.16667,0,0)">
            <path d="M274.842,70.478C278.146,72.859 284.473,76.627 288.063,75.2C288.063,75.2 291.291,77.885 288.19,84.633C284.78,92.052 282.877,86.486 282.877,86.486C283.771,81.992 280.719,80.716 277.573,80.125L274.842,70.478Z" style="fill:rgb(245,137,125);fill-rule:nonzero;"/>
        </g>
        <g transform="matrix(4.16667,0,0,4.16667,0,0)">
            <path d="M275.835,65.985C278.929,70.437 280.966,72.886 280.543,76.76C279.907,82.586 273.13,84.782 268.768,81.344C264.843,78.249 260.443,71.488 263.265,66.516C266.044,61.616 272.742,61.533 275.835,65.985Z" style="fill:rgb(245,137,125);fill-rule:nonzero;"/>
        </g>
        <g transform="matrix(4.16667,0,0,4.16667,0,0)">
            <path d="M280.806,73.333C280.341,75.856 271.849,79.308 267.996,73.868C267.996,73.868 263.16,73.829 260.251,70.914C257.342,67.998 257.966,64.837 260.571,63.117C262.87,61.6 268.81,50.433 275.728,58.403C283.239,58.098 281.385,70.185 280.806,73.333Z" style="fill:rgb(24,46,53);fill-rule:nonzero;"/>
        </g>
        <g transform="matrix(4.16667,0,0,4.16667,0,0)">
            <path d="M266.458,61.915C266.458,61.915 261.997,61.7 259.426,63.744C256.855,65.787 257.579,72.058 258.569,73.242C259.558,74.425 260.613,74.425 260.613,74.425C260.613,74.425 259.096,73.639 259.096,72.482C259.096,72.482 259.756,74.029 262.789,74.425C262.789,74.425 261.924,73.734 262.06,72.86C262.06,72.86 263.703,74.987 267.499,72.86C271.294,70.733 266.458,61.915 266.458,61.915Z" style="fill:rgb(24,46,53);fill-rule:nonzero;"/>
        </g>
        <g transform="matrix(4.16667,0,0,4.16667,0,0)">
            <path d="M270.252,72.932C271.072,74.091 271.392,75.544 271.318,76.72C271.208,78.488 269.729,78.627 268.565,77.511C267.518,76.507 266.313,74.377 266.998,72.902C267.672,71.45 269.315,71.606 270.252,72.932Z" style="fill:rgb(245,137,125);fill-rule:nonzero;"/>
        </g>
        <g transform="matrix(4.16667,0,0,4.16667,0,0)">
            <path d="M279.131,87.711C279.131,87.711 278.3,77.643 284.874,71.989L292.702,72.707C292.702,72.707 288.191,83.715 279.131,87.711Z" style="fill:rgb(62,117,186);fill-rule:nonzero;"/>
        </g>
        <g transform="matrix(4.16667,0,0,4.16667,0,0)">
            <path d="M279.11,85.836C279.214,82.653 280.054,76.135 284.874,71.989L288.996,72.367C287.684,73.546 286.445,74.899 285.297,76.322C282.718,79.518 280.593,83.073 279.11,85.836Z" style="fill:rgb(175,200,233);fill-rule:nonzero;"/>
        </g>
        <g transform="matrix(4.16667,0,0,4.16667,0,0)">
            <path d="M301.701,110.355C301.701,110.355 289.862,98.732 276.775,90.595C276.775,90.595 285.494,70.129 296.531,68.302C296.531,68.302 325.064,76.92 333.343,100.271L301.701,110.355Z" style="fill:rgb(62,117,186);fill-rule:nonzero;"/>
        </g>
        <g transform="matrix(4.16667,0,0,4.16667,0,0)">
            <path d="M303.205,181.261L298.097,183.429L292.568,171.815L297.676,169.647L303.205,181.261Z" style="fill:rgb(245,137,125);fill-rule:nonzero;"/>
        </g>
        <g transform="matrix(4.16667,0,0,4.16667,0,0)">
            <path d="M333.343,100.271L330.33,132.237C328.674,133.462 326.035,134.415 322.85,135.159C316.613,136.61 308.29,137.27 301.104,137.655C293.032,138.096 286.403,138.179 285.804,138.643C284.401,139.735 302.174,176.443 302.174,176.443L293.691,177.5C293.691,177.5 271.396,146.923 268.511,136.301C267.448,132.38 266.377,127.469 273.578,122.88C279.916,118.839 303.518,115.808 303.518,115.808L301.701,110.355L333.343,100.271Z" style="fill:rgb(24,46,53);fill-rule:nonzero;"/>
        </g>
        <g transform="matrix(4.16667,0,0,4.16667,0,0)">
            <path d="M301.104,137.655C300.641,132.038 301.744,126.53 303.027,122.3C303.385,126.627 303.883,131.864 304.556,137.452C303.385,137.528 302.231,137.595 301.104,137.655Z" style="fill:rgb(15,35,41);fill-rule:nonzero;"/>
        </g>
        <g transform="matrix(4.16667,0,0,4.16667,0,0)">
            <path d="M377.592,176.554L378.496,182.028L365.907,184.667L365.003,179.191L377.592,176.554Z" style="fill:rgb(245,137,125);fill-rule:nonzero;"/>
        </g>
        <g transform="matrix(4.16667,0,0,4.16667,0,0)">
            <path d="M378.823,182.695C379.488,183.497 380.216,184.695 380.046,185.103C380.024,185.156 379.974,185.227 379.786,185.234C379.681,185.237 379.586,185.197 379.494,185.111L379.335,184.911C378.995,184.358 378.868,183.271 378.823,182.695ZM378.765,182.229L378.619,182.197L378.537,182.323C378.54,182.418 378.616,184.648 379.314,185.304C379.458,185.437 379.619,185.503 379.794,185.496C380.107,185.486 380.236,185.332 380.29,185.205C380.441,184.841 380.164,184.203 379.79,183.597C379.442,183.032 379.011,182.494 378.765,182.229Z" style="fill:rgb(62,117,186);fill-rule:nonzero;"/>
        </g>
        <g transform="matrix(4.16667,0,0,4.16667,0,0)">
            <path d="M377.481,184.104C377.562,183.511 378.22,182.873 378.554,182.584C378.563,183.381 378.232,184.642 377.88,184.789C377.852,184.801 377.764,184.837 377.62,184.647L377.575,184.583C377.488,184.44 377.457,184.283 377.481,184.104ZM378.719,182.197L378.589,182.214C378.539,182.253 377.344,183.164 377.221,184.068C377.184,184.345 377.247,184.593 377.411,184.808C377.632,185.096 377.843,185.089 377.98,185.031C378.568,184.789 378.895,183.03 378.799,182.302L378.781,182.25L378.719,182.197Z" style="fill:rgb(62,117,186);fill-rule:nonzero;"/>
        </g>
        <g transform="matrix(4.16667,0,0,4.16667,0,0)">
            <path d="M377.813,182.154L374.634,176.994C374.515,176.801 374.546,176.552 374.709,176.393L378.335,172.873C378.71,172.508 379.326,172.585 379.593,173.035C380.708,174.916 382.256,177.673 383.697,180.013C385.381,182.748 386.986,185.018 388.961,188.227C390.156,190.166 388.527,191.912 387.849,191.21C384.764,188.012 382.818,185.047 378.881,183.065C378.454,182.85 378.064,182.561 377.813,182.154Z" style="fill:rgb(24,46,53);fill-rule:nonzero;"/>
        </g>
        <g transform="matrix(4.16667,0,0,4.16667,0,0)">
            <path d="M333.343,100.271C333.343,100.271 343.508,126.403 326.359,136.542C326.359,136.542 326.141,166.738 330.476,170.276C335.751,174.582 374.385,176.773 374.385,176.773L374.048,186.367C374.048,186.367 332.689,189.753 320.166,185.261C305.504,179.999 302.238,110.81 302.238,110.81L333.343,100.271Z" style="fill:rgb(24,46,53);fill-rule:nonzero;"/>
        </g>
        <g transform="matrix(4.16667,0,0,4.16667,0,0)">
            <path d="M325.738,125.058L323.029,124.196C323.029,124.196 322.29,118.517 321.59,116.312L327.765,114.445C327.765,114.445 328.613,119.757 328.602,122.6L325.738,125.058Z" style="fill:rgb(15,35,41);fill-rule:nonzero;"/>
        </g>
        <g transform="matrix(4.16667,0,0,4.16667,0,0)">
            <path d="M303.736,110.376L304.536,112.916L302.252,113.624L301.448,111.107L303.736,110.376Z" style="fill:rgb(24,46,53);fill-rule:nonzero;"/>
        </g>
        <g transform="matrix(4.16667,0,0,4.16667,0,0)">
            <path d="M314.272,106.997L315.131,109.631L305.677,112.562L304.842,110.018L314.272,106.997Z" style="fill:rgb(24,46,53);fill-rule:nonzero;"/>
        </g>
        <g transform="matrix(4.16667,0,0,4.16667,0,0)">
            <path d="M326.04,103.225L326.897,105.982L316.329,109.257L315.489,106.606L326.04,103.225Z" style="fill:rgb(24,46,53);fill-rule:nonzero;"/>
        </g>
        <g transform="matrix(4.16667,0,0,4.16667,0,0)">
            <path d="M334.638,103.579L328.129,105.597L328.122,105.598L327.249,102.835L333.71,100.765L334.638,103.579Z" style="fill:rgb(24,46,53);fill-rule:nonzero;"/>
        </g>
        <g transform="matrix(4.16667,0,0,4.16667,0,0)">
            <path d="M302.252,113.624L301.448,111.107L303.736,110.376L304.536,112.916L302.394,113.58L302.252,113.624Z" style="fill:rgb(75,91,97);fill-rule:nonzero;"/>
        </g>
        <g transform="matrix(4.16667,0,0,4.16667,0,0)">
            <path d="M305.677,112.562L304.842,110.018L314.272,106.997L315.131,109.631L305.677,112.562Z" style="fill:rgb(75,91,97);fill-rule:nonzero;"/>
        </g>
        <g transform="matrix(4.16667,0,0,4.16667,0,0)">
            <path d="M316.329,109.257L315.489,106.606L326.04,103.225L326.897,105.982L316.329,109.257Z" style="fill:rgb(75,91,97);fill-rule:nonzero;"/>
        </g>
        <g transform="matrix(4.16667,0,0,4.16667,0,0)">
            <path d="M328.122,105.598L327.249,102.835L333.71,100.765L334.638,103.579L328.129,105.597L328.122,105.598Z" style="fill:rgb(75,91,97);fill-rule:nonzero;"/>
        </g>
        <g transform="matrix(4.16667,0,0,4.16667,0,0)">
            <path d="M296.097,181.622C295.069,181.793 293.667,181.817 293.4,181.465C293.365,181.419 293.33,181.339 293.418,181.174C293.468,181.082 293.551,181.019 293.672,180.984C293.747,180.962 293.833,180.95 293.925,180.948C294.573,180.933 295.576,181.37 296.097,181.622ZM296.528,181.807L296.63,181.697L296.563,181.563C296.479,181.517 294.514,180.459 293.597,180.732C293.409,180.788 293.271,180.894 293.188,181.049C293.039,181.324 293.107,181.514 293.19,181.624C293.428,181.938 294.118,182.019 294.831,182.003C295.494,181.987 296.176,181.886 296.528,181.807Z" style="fill:rgb(62,117,186);fill-rule:nonzero;"/>
        </g>
        <g transform="matrix(4.16667,0,0,4.16667,0,0)">
            <path d="M295.556,179.753C296.028,180.122 296.247,181.012 296.329,181.446C295.636,181.053 294.712,180.131 294.764,179.753C294.768,179.722 294.781,179.629 295.017,179.599L295.096,179.593C295.262,179.589 295.414,179.642 295.556,179.753ZM296.579,181.783L296.63,181.663C296.622,181.6 296.438,180.109 295.718,179.546C295.499,179.375 295.253,179.305 294.984,179.338C294.624,179.384 294.524,179.569 294.503,179.717C294.417,180.347 295.771,181.516 296.449,181.8L296.502,181.81L296.579,181.783Z" style="fill:rgb(62,117,186);fill-rule:nonzero;"/>
        </g>
        <g transform="matrix(4.16667,0,0,4.16667,0,0)">
            <path d="M297.073,181.022L303.132,180.879C303.358,180.873 303.559,181.026 303.613,181.246L304.826,186.151C304.951,186.66 304.575,187.154 304.051,187.157C303.252,187.162 302.324,187.159 301.333,187.155C299.611,187.149 297.701,187.143 295.957,187.183C292.745,187.26 289.975,187.501 286.209,187.59C283.931,187.643 283.245,185.356 284.193,185.125C288.51,184.073 292.052,183.888 295.747,181.486C296.149,181.226 296.595,181.033 297.073,181.022Z" style="fill:rgb(24,46,53);fill-rule:nonzero;"/>
        </g>
        <g transform="matrix(4.16667,0,0,4.16667,0,0)">
            <path d="M300.23,108.954C298.081,106.946 293.755,103.025 288.394,98.816C288.393,98.815 288.393,98.814 288.392,98.812C293.755,103.02 298.083,106.945 300.23,108.954ZM276.856,90.647C276.829,90.63 276.801,90.613 276.774,90.596C276.774,90.596 277.617,88.617 279.11,85.836L279.11,85.838C277.618,88.617 276.775,90.595 276.775,90.595C276.802,90.612 276.83,90.629 276.857,90.646C276.857,90.646 276.857,90.647 276.856,90.647ZM321.131,82.504C318.953,80.52 316.686,78.769 314.445,77.234C316.685,78.768 318.954,80.52 321.131,82.504Z" style="fill:white;fill-rule:nonzero;"/>
        </g>
        <g transform="matrix(4.16667,0,0,4.16667,0,0)">
            <path d="M279.11,85.838L279.11,85.836C280.593,83.073 282.718,79.518 285.297,76.322C282.718,79.519 280.593,83.075 279.11,85.838Z" style="fill:rgb(232,240,250);fill-rule:nonzero;"/>
        </g>
        <g transform="matrix(4.16667,0,0,4.16667,0,0)">
            <path d="M301.703,110.354C301.677,110.33 301.156,109.819 300.23,108.954C298.083,106.945 293.755,103.02 288.392,98.812C287.112,95.822 284.603,93.636 284.415,93.475C283.965,92.716 283.317,91.961 282.387,91.403C280.532,90.289 278.899,90.081 277.936,90.081C277.36,90.081 277.023,90.156 277.023,90.156C276.968,90.319 276.912,90.482 276.857,90.646C276.83,90.629 276.802,90.612 276.775,90.595C276.775,90.595 277.618,88.617 279.11,85.838C280.593,83.075 282.718,79.519 285.297,76.322C288.472,72.387 292.335,68.998 296.534,68.306C296.534,68.306 305.25,70.936 314.445,77.234C316.686,78.769 318.953,80.52 321.131,82.504L321.132,82.505C321.138,82.51 321.143,82.515 321.149,82.521C326.197,87.125 330.757,92.979 333.342,100.272L301.703,110.354Z" style="fill:rgb(194,215,239);fill-rule:nonzero;"/>
        </g>
        <g transform="matrix(4.16667,0,0,4.16667,0,0)">
            <path d="M301.704,110.355C301.704,110.355 301.703,110.355 301.703,110.354L333.343,100.271L333.342,100.272L333.119,100.347L301.704,110.355Z" style="fill:rgb(189,194,197);fill-rule:nonzero;"/>
        </g>
        <g transform="matrix(4.16667,0,0,4.16667,0,0)">
            <path d="M333.119,100.347L333.343,100.271C333.343,100.273 333.343,100.274 333.344,100.276L333.119,100.347Z" style="fill:rgb(189,194,197);fill-rule:nonzero;"/>
        </g>
        <g transform="matrix(4.16667,0,0,4.16667,0,0)">
            <path d="M288.394,98.816C287.433,98.065 286.443,97.305 285.426,96.545C285.427,96.543 285.427,96.542 285.428,96.541C286.445,97.301 287.434,98.061 288.392,98.812C288.393,98.814 288.393,98.815 288.394,98.816Z" style="fill:rgb(230,230,230);fill-rule:nonzero;"/>
        </g>
        <g transform="matrix(4.16667,0,0,4.16667,0,0)">
            <path d="M288.392,98.812C287.434,98.061 286.445,97.301 285.428,96.541C285.428,96.541 285.319,94.999 284.415,93.475C284.603,93.636 287.112,95.822 288.392,98.812Z" style="fill:rgb(171,194,229);fill-rule:nonzero;"/>
        </g>
        <g transform="matrix(4.16667,0,0,4.16667,0,0)">
            <path d="M242.677,119.696L240.496,120.216C239.952,120.346 239.539,120.789 239.45,121.342L238.957,124.379C238.853,125.02 239.208,125.647 239.812,125.888L241.406,126.523C241.406,126.523 246.008,129.843 249.898,127.699L248.217,123.249L244.927,120.272C244.318,119.721 243.476,119.505 242.677,119.696Z" style="fill:rgb(245,137,125);fill-rule:nonzero;"/>
        </g>
        <g transform="matrix(4.16667,0,0,4.16667,0,0)">
            <path d="M282.387,91.403C285.184,93.081 285.428,96.541 285.428,96.541C285.428,96.541 283.23,102.501 281.956,105.468C281.09,107.481 280.191,109.501 279.144,111.51C278.063,113.536 277.024,115.522 275.259,117.715L274.915,118.13L274.505,118.571C274.258,118.849 273.892,119.18 273.536,119.487C273.384,119.629 273.107,119.823 272.874,119.986C272.648,120.142 272.331,120.351 272.239,120.387L271.394,120.827C270.292,121.381 269.261,121.814 268.226,122.24C266.171,123.082 264.137,123.814 262.096,124.516C258.004,125.885 253.934,127.136 249.754,128.188L247.77,122.841C251.519,120.92 255.34,119.101 259.07,117.226C260.937,116.301 262.798,115.369 264.584,114.429C265.464,113.954 266.341,113.468 267.098,113.008L267.635,112.668C267.78,112.585 267.669,112.624 267.659,112.629L267.623,112.641C267.655,112.587 267.687,112.57 267.779,112.439L267.898,112.289L268.042,112.078C268.852,110.902 269.768,109.102 270.56,107.339C271.353,105.534 272.146,103.671 272.876,101.763C274.329,97.961 275.723,93.997 277.023,90.156C277.023,90.156 279.42,89.622 282.387,91.403Z" style="fill:rgb(62,117,186);fill-rule:nonzero;"/>
        </g>
        <g transform="matrix(4.16667,0,0,4.16667,0,0)">
            <path d="M249.754,128.188L249.625,127.84L247.772,122.846L247.77,122.841C251.519,120.92 255.34,119.101 259.07,117.226C260.937,116.301 262.798,115.369 264.584,114.429C265.464,113.954 266.341,113.468 267.098,113.008L267.635,112.668C267.692,112.636 267.709,112.622 267.709,112.617C267.709,112.616 267.708,112.615 267.705,112.615C267.694,112.615 267.664,112.627 267.659,112.629L267.623,112.641C267.655,112.587 267.687,112.57 267.779,112.439L267.898,112.289L268.042,112.078C268.852,110.902 269.768,109.102 270.56,107.339C271.353,105.534 272.146,103.671 272.876,101.763C274.329,97.961 275.723,93.997 277.023,90.156C277.023,90.156 277.36,90.081 277.936,90.081C278.899,90.081 280.532,90.289 282.387,91.403C285.184,93.081 285.428,96.541 285.428,96.541C285.427,96.542 285.427,96.543 285.426,96.545C285.361,96.723 283.211,102.547 281.956,105.468C281.09,107.481 280.191,109.501 279.144,111.51C278.063,113.536 277.024,115.522 275.259,117.715L274.915,118.13L274.505,118.571C274.258,118.849 273.892,119.18 273.536,119.487C273.384,119.629 273.107,119.823 272.874,119.986C272.648,120.142 272.331,120.351 272.239,120.387L271.394,120.827C270.292,121.381 269.261,121.814 268.226,122.24C266.171,123.082 264.137,123.814 262.096,124.516C258.004,125.885 253.934,127.136 249.754,128.188Z" style="fill:rgb(194,215,239);fill-rule:nonzero;"/>
        </g>
        <g transform="matrix(4.16667,0,0,4.16667,0,0)">
            <path d="M99.505,356.754L268.39,356.754L357.766,284.558L361.685,289.409L383.699,289.409L406.125,186.179L384.102,186.223L384.112,186.179L278.472,186.389L291.084,202.001L99.505,356.754Z" style="fill:rgb(62,117,186);fill-rule:nonzero;"/>
        </g>
        <g transform="matrix(4.16667,0,0,4.16667,0,0)">
            <path d="M361.685,289.409L357.766,284.558L361.685,289.409Z" style="fill:rgb(236,237,237);fill-rule:nonzero;"/>
        </g>
        <g transform="matrix(4.16667,0,0,4.16667,0,0)">
            <path d="M384.102,186.223L384.112,186.179L384.102,186.223Z" style="fill:rgb(75,91,97);fill-rule:nonzero;"/>
        </g>
        <g transform="matrix(4.16667,0,0,4.16667,0,0)">
            <path d="M217.327,350.796L106.881,350.796L291.084,202.001L287.841,197.987L286.751,196.638L283.243,192.295L282.831,191.784L278.472,186.389L384.112,186.179L384.102,186.223L361.685,289.409L357.766,284.558L349.074,273.797L263.64,342.809C261.633,340.895 258.956,339.678 255.994,339.54L255.996,339.511C255.996,332.623 250.412,327.039 243.524,327.039C238.168,327.039 233.613,330.422 231.847,335.163C231.675,335.156 231.506,335.137 231.334,335.137C223.548,335.137 217.236,341.448 217.236,349.234C217.236,349.763 217.271,350.283 217.327,350.796Z" style="fill:rgb(96,141,201);fill-rule:nonzero;"/>
        </g>
        <g transform="matrix(4.16667,0,0,4.16667,0,0)">
            <path d="M96.068,350.796L217.327,350.796C217.271,350.283 217.236,349.763 217.236,349.234C217.236,341.448 223.548,335.137 231.334,335.137C231.506,335.137 231.675,335.156 231.847,335.163C233.613,330.422 238.168,327.039 243.524,327.039C250.412,327.039 255.996,332.623 255.996,339.511L255.994,339.54C262.101,339.824 266.995,344.698 267.312,350.796L267.879,350.796C271.326,350.796 274.146,353.616 274.146,357.063C274.146,360.511 271.326,363.331 267.879,363.331L96.068,363.331C92.621,363.331 89.8,360.511 89.8,357.063C89.8,353.616 92.621,350.796 96.068,350.796Z" style="fill:rgb(62,117,186);fill-rule:nonzero;"/>
        </g>
        <g transform="matrix(4.16667,0,0,4.16667,0,0)">
            <path d="M267.879,363.331L96.068,363.331C92.621,363.331 89.8,360.511 89.8,357.063C89.8,353.616 92.621,350.796 96.068,350.796L217.327,350.796C217.271,350.283 217.236,349.763 217.236,349.234C217.236,341.448 223.548,335.137 231.334,335.137C231.506,335.137 231.675,335.156 231.847,335.163C233.613,330.422 238.168,327.039 243.524,327.039C250.412,327.039 255.996,332.623 255.996,339.511L255.994,339.54C262.101,339.824 266.995,344.698 267.312,350.796L267.879,350.796C271.326,350.796 274.146,353.616 274.146,357.063C274.146,360.511 271.326,363.331 267.879,363.331Z" style="fill:rgb(194,215,239);fill-rule:nonzero;"/>
        </g>
    </g>
</svg>
